<svg width="70" height="70" viewBox="0 0 70 70" xmlns="http://www.w3.org/2000/svg" xmlns:xlink="http://www.w3.org/1999/xlink"><title>Page 1</title><defs><path id="a" d="M0 .133h69.866v69.72H0z"/></defs><g fill="none" fill-rule="evenodd"><path fill="#FFFFFE" d="M17.046 31.907v6.2l4.645-3.1zm16.031-4.5v-8.64l-14.545 9.675 6.497 4.337zm18.257 1.035L36.79 18.767v8.64l8.048 5.372zm-32.802 13.13l14.545 9.676v-8.64l-8.048-5.372zm18.258 1.036v8.64l14.544-9.676-6.496-4.335zm-1.857-11.983l-6.565 4.382 6.565 4.383 6.566-4.383z"/><g transform="translate(0 .014)"><mask id="b" fill="#fff"><use xlink:href="#a"/></mask><path d="M56.532 41.56c0 .082-.005.163-.016.243-.004.026-.01.054-.015.08-.01.052-.019.104-.032.155-.008.03-.02.06-.03.09-.014.045-.029.09-.047.136-.012.03-.028.06-.041.09-.02.041-.04.082-.063.123-.017.028-.036.057-.053.085a1.657 1.657 0 0 1-.235.292c-.024.025-.048.05-.074.073a1.809 1.809 0 0 1-.189.152c-.01.007-.02.016-.031.023L35.963 56.236a1.857 1.857 0 0 1-2.06 0L14.16 43.102c-.01-.007-.02-.016-.03-.023a1.744 1.744 0 0 1-.19-.152 1.694 1.694 0 0 1-.074-.073 1.473 1.473 0 0 1-.092-.1 1.708 1.708 0 0 1-.195-.278 2.164 2.164 0 0 1-.063-.123c-.014-.03-.029-.059-.042-.09a1.869 1.869 0 0 1-.047-.135c-.01-.03-.02-.06-.03-.09-.013-.051-.022-.103-.032-.155-.004-.026-.011-.054-.015-.08a1.82 1.82 0 0 1-.017-.242V28.426c0-.082.007-.162.017-.242.004-.027.01-.053.015-.08.01-.052.019-.104.033-.155a.943.943 0 0 1 .029-.09 1.666 1.666 0 0 1 .283-.547 1.6 1.6 0 0 1 .064-.08c.03-.034.06-.068.092-.1.025-.025.049-.05.075-.072a1.802 1.802 0 0 1 .189-.152c.01-.007.02-.016.03-.023L33.903 13.75a1.86 1.86 0 0 1 2.06 0l19.743 13.135c.01.007.02.016.03.023.03.02.057.042.085.063.036.029.072.058.105.089a1.585 1.585 0 0 1 .308.365c.018.028.037.056.054.086.022.04.043.08.063.122.013.03.029.06.041.091.018.044.033.09.048.135.01.03.02.059.029.09.013.05.023.103.032.155.005.027.011.053.015.08.01.08.016.16.016.242v13.135zM34.932.134C15.642.133 0 15.741 0 34.993c0 19.253 15.64 34.86 34.933 34.86s34.933-15.607 34.933-34.86c0-19.252-15.64-34.86-34.933-34.86z" fill="#FFFFFE" mask="url(#b)"/></g><path fill="#FFFFFE" d="M52.82 38.107v-6.2l-4.643 3.1z"/></g></svg>