<?xml version="1.0" encoding="UTF-8"?>
<svg width="70px" height="70px" viewBox="0 0 70 70" version="1.1" xmlns="http://www.w3.org/2000/svg" xmlns:xlink="http://www.w3.org/1999/xlink">
    <!-- Generator: Sketch 49.1 (51147) - http://www.bohemiancoding.com/sketch -->
    <title>Group 13</title>
    <desc>Created with Sketch.</desc>
    <defs></defs>
    <g id="Home" stroke="none" stroke-width="1" fill="none" fill-rule="evenodd">
        <g id="Home-v1.0" transform="translate(-919.000000, -3901.000000)">
            <g id="Group-13" transform="translate(919.000000, 3901.000000)">
                <circle id="Oval-2" fill="#FFFFFF" cx="35" cy="35" r="35"></circle>
                <path d="M29.077,30.184 C28.5556641,29.5493302 27.9153371,29.0620017 27.156,28.722 C26.3966629,28.3819983 25.5183383,28.212 24.521,28.212 C23.5236617,28.212 22.6000042,28.4046647 21.75,28.79 C20.8999958,29.1753353 20.1633364,29.7136632 19.54,30.405 C18.9166635,31.0963368 18.4293351,31.9179952 18.078,32.87 C17.7266649,33.8220048 17.551,34.8533278 17.551,35.964 C17.551,37.097339 17.7266649,38.1343286 18.078,39.075 C18.4293351,40.0156714 18.9109969,40.8316632 19.523,41.523 C20.1350031,42.2143368 20.8546625,42.7526647 21.682,43.138 C22.5093375,43.5233353 23.3989952,43.716 24.351,43.716 C25.4390054,43.716 26.4023291,43.4893356 27.241,43.036 C28.0796709,42.5826644 28.7709973,41.9480041 29.315,41.132 L33.735,44.43 C32.7149949,45.8580071 31.4230078,46.9119966 29.859,47.592 C28.2949922,48.2720034 26.6856749,48.612 25.031,48.612 C23.1496573,48.612 21.4156746,48.3173363 19.829,47.728 C18.2423254,47.1386637 16.8710058,46.2943388 15.715,45.195 C14.5589942,44.0956612 13.6580032,42.7640078 13.012,41.2 C12.3659968,39.6359922 12.043,37.8906763 12.043,35.964 C12.043,34.0373237 12.3659968,32.2920078 13.012,30.728 C13.6580032,29.1639922 14.5589942,27.8323388 15.715,26.733 C16.8710058,25.6336612 18.2423254,24.7893363 19.829,24.2 C21.4156746,23.6106637 23.1496573,23.316 25.031,23.316 C25.7110034,23.316 26.4193297,23.3783327 27.156,23.503 C27.8926704,23.6276673 28.6179964,23.8259986 29.332,24.098 C30.0460036,24.3700014 30.7316634,24.7326644 31.389,25.186 C32.0463366,25.6393356 32.6356641,26.1946634 33.157,26.852 L29.077,30.184 Z M34.245,23.928 L40.297,23.928 L46.247,39.704 L46.315,39.704 L52.367,23.928 L58.045,23.928 L48.117,48 L43.867,48 L34.245,23.928 Z" id="CV" fill="#000000"></path>
            </g>
        </g>
    </g>
</svg>