<svg width="70" height="70" viewBox="0 0 70 70" xmlns="http://www.w3.org/2000/svg" xmlns:xlink="http://www.w3.org/1999/xlink"><title>Group 3</title><defs><path id="a" d="M.059.568h69.278v69.279H.059z"/></defs><g fill="none" fill-rule="evenodd"><mask id="b" fill="#fff"><use xlink:href="#a"/></mask><path d="M38.025 31.872a43.498 43.498 0 0 1 1.13 2.528c1-.12 2.071-.18 3.183-.18 3.077 0 5.642.452 6.495.621a14.17 14.17 0 0 0-3.07-8.439c-.58.74-2.955 3.474-7.738 5.47M34.698 52.16c-9.349 0-16.954-7.604-16.954-16.953 0-9.348 7.605-16.953 16.954-16.953 9.348 0 16.953 7.605 16.953 16.953 0 9.349-7.605 16.953-16.953 16.953m0-51.592C15.566.568.058 16.076.058 35.208c0 19.131 15.508 34.639 34.64 34.639 19.13 0 34.639-15.508 34.639-34.64 0-19.13-15.508-34.639-34.64-34.639m5.46 36.434c1.678 4.66 2.451 8.539 2.673 9.777a14.186 14.186 0 0 0 5.806-9.174c-.627-.187-2.891-.798-5.741-.798-.935 0-1.855.065-2.737.195m-6.525-6.612a86.82 86.82 0 0 0-5.103-7.91 14.225 14.225 0 0 0-7.627 9.596h.059c1.467 0 6.673-.123 12.67-1.686m-7.509 16.051a13.993 13.993 0 0 0 8.575 2.91c1.864 0 3.677-.357 5.389-1.064-.239-1.373-1.063-5.556-2.964-10.54-7.654 2.706-10.541 7.798-11 8.694m17.794-21.954A14.124 14.124 0 0 0 31.632 21.4a73.59 73.59 0 0 1 5.128 8.02c4.625-1.772 6.717-4.338 7.157-4.934m-8.283 10.658c.123-.039.246-.076.37-.113a47.63 47.63 0 0 0-1.005-2.104c-6.785 2.004-13.279 2.029-14.44 2.01-.002.089-.005.18-.005.27a14.11 14.11 0 0 0 3.457 9.262c.744-1.2 4.682-7.08 11.623-9.325" fill="#FFF" mask="url(#b)"/></g></svg>