<svg width="70" height="70" viewBox="0 0 70 70" xmlns="http://www.w3.org/2000/svg" xmlns:xlink="http://www.w3.org/1999/xlink"><title>Group 12</title><defs><path id="a" d="M.272 0h69.279v69.278H.272z"/></defs><g fill="none" fill-rule="evenodd"><mask id="b" fill="#fff"><use xlink:href="#a"/></mask><path d="M49.369 29.73h-7.217a8.602 8.602 0 0 0-7.036-3.646 8.605 8.605 0 0 0-7.037 3.645h-7.215v-4.825a4.453 4.453 0 0 1 4.454-4.455h19.597a4.455 4.455 0 0 1 4.454 4.455v4.825zm-19.556 4.972a5.303 5.303 0 1 1 10.606 0 5.303 5.303 0 0 1-10.606 0zM49.369 44.5a4.455 4.455 0 0 1-4.454 4.454H25.318a4.453 4.453 0 0 1-4.454-4.454V33.045h5.795a8.617 8.617 0 0 0 8.457 10.275 8.618 8.618 0 0 0 8.457-10.275h5.796V44.5zM34.911 0C15.781 0 .272 15.51.272 34.64c0 19.13 15.51 34.639 34.64 34.639 19.13 0 34.639-15.51 34.639-34.64C69.55 15.51 54.042 0 34.91 0z" fill="#FFF" mask="url(#b)"/></g></svg>