<svg width="70" height="70" viewBox="0 0 70 70" xmlns="http://www.w3.org/2000/svg"><title>Fill 4</title><path d="M52.316 49.505h-7.089v-12.64c0-2.937-1.026-4.942-3.59-4.942-1.96 0-3.125 1.353-3.638 2.658-.187.466-.235 1.12-.235 1.772v13.152h-7.087v-15.53c0-2.845-.093-5.223-.187-7.276h6.156l.327 3.171h.14c.933-1.492 3.218-3.683 7.043-3.683 4.663 0 8.16 3.124 8.16 9.84v13.478zM22.843 23.901c-2.239 0-3.685-1.586-3.685-3.544 0-2.006 1.493-3.545 3.777-3.545 2.287 0 3.686 1.539 3.731 3.545 0 1.958-1.444 3.544-3.823 3.544zm-3.498 25.604h7.09V26.7h-7.09v22.806zM35 0C15.67 0 0 15.67 0 35s15.67 35 35 35c19.332 0 35-15.67 35-35S54.332 0 35 0z" fill="#FFF" fill-rule="evenodd"/></svg>