<svg width="110" height="89" viewBox="0 0 110 89" xmlns="http://www.w3.org/2000/svg" xmlns:xlink="http://www.w3.org/1999/xlink"><title>Page 1 Copy</title><defs><path id="a" d="M0 0h110v89H0z"/></defs><g fill="none" fill-rule="evenodd"><mask id="b" fill="#fff"><use xlink:href="#a"/></mask><path d="M45.4 53.303a44.23 44.23 0 0 1-3.329 7.59 44.942 44.942 0 0 1-4.504 6.644c-1.67 2.025-3.419 3.768-5.243 5.223-1.825 1.459-3.679 2.6-5.564 3.428-1.884.828-3.712 1.24-5.476 1.24-1.572 0-2.918-.303-4.037-.915a7.872 7.872 0 0 1-2.767-2.51c-.727-1.062-1.259-2.294-1.59-3.692a19.009 19.009 0 0 1-.498-4.4c0-2.713.449-5.106 1.353-7.173a16.377 16.377 0 0 1 3.74-5.374c1.59-1.516 3.482-2.786 5.683-3.81 2.198-1.024 4.584-1.852 7.154-2.483 2.138-.521 4.38-.93 6.722-1.222.475-.059.952-.115 1.435-.165 2.865-.295 5.752-.48 8.658-.56a37.554 37.554 0 0 1-1.738 8.18m11.304-22.098a52.661 52.661 0 0 1 2.156-7.165 40.107 40.107 0 0 1 3.218-6.602 26.868 26.868 0 0 1 2.75-3.763 24.706 24.706 0 0 1 1.62-1.685 19.412 19.412 0 0 1 5.61-3.701c2.086-.908 4.41-1.362 6.969-1.362 1.732 0 3.346.336 4.842 1.007a11.845 11.845 0 0 1 3.868 2.753c1.083 1.165 1.93 2.537 2.54 4.116.61 1.579.915 3.277.915 5.092 0 2.724-.807 5.142-2.42 7.254-1.616 2.112-3.949 3.928-6.999 5.448-3.051 1.52-6.792 2.763-11.22 3.73-1.553.34-3.18.643-4.876.912-3.14.497-6.524.875-10.154 1.131.236-2.328.63-4.717 1.18-7.165m47.982 39.166c-3.445 1.344-5.159 2.508-11.03 5.712-5.816 3.176-10.024 4.284-16.176 4.284-6.95 0-11.737-4.23-15.323-7.825-.97-.972-1.78-2.308-2.62-3.483-1.914-2.678-3.272-6.307-4.043-10.615-.799-4.464-.533-8.386-.32-13.31a196.76 196.76 0 0 0 10.101-1.138c3.508-.49 6.883-1.068 10.121-1.734 6.24-1.282 11.663-2.97 16.27-5.063 4.606-2.092 8.218-4.444 10.836-7.445 2.618-2.999 3.927-8.26 3.927-12.287 0-2.762-.59-5.23-1.771-7.402a16.722 16.722 0 0 0-4.754-5.477c-1.989-1.48-4.302-2.615-6.939-3.405C90.325.394 85.271 0 82.357 0c-4.41 0-10.811.69-14.65 2.072a39.709 39.709 0 0 0-10.41 5.595l-.824-.956c-1.828-2.106-4.202-3.708-7.127-4.811C46.42.796 42.896.016 38.776.016c-2.238 0-4.701.052-7.323.467-2.761.438-4.698.838-7.584 1.752-2.625.83-5.146 2.056-7.595 3.427-2.525 1.413-4.87 3.284-6.763 5.159a19.775 19.775 0 0 0-1.622 1.824c-1.008 1.28-1.847 2.644-2.594 4.017a13.456 13.456 0 0 0-1.678 6.554c0 1.417.246 2.698.735 3.84.49 1.14 1.158 2.108 2.002 2.894a8.541 8.541 0 0 0 3.004 1.8c1.157.415 2.405.619 3.739.619 1.995 0 3.975-.424 5.94-1.27a5.477 5.477 0 0 0 1.291-.632l-.48-.767c-1.209-1.693-2.138-3.43-2.778-5.215-.686-1.908-1.03-3.81-1.03-5.7 0-1.613.265-3.117.796-4.515.528-1.399 1.39-2.608 2.59-3.633 1.198-1.02 2.759-1.829 4.684-2.418 1.923-.59 4.279-.888 7.068-.888 2.08 0 4.161.355 6.242 1.061a16.32 16.32 0 0 1 5.593 3.25c1.651 1.46 2.986 3.327 4.007 5.61.112.25.217.508.317.77.806 2.113 1.213 4.553 1.213 7.317 0 2.797-.09 5.36-.264 7.68-.177 2.325-.403 2.783-.678 5.263-3.318 0-4.308.163-7.53.482-.936.092-10.824 1.657-14.514 2.738-3.69 1.08-7.105 2.441-10.245 4.074-3.144 1.633-5.843 3.571-8.1 5.817-2.258 2.245-4.093 4.751-5.3 7.615C.617 62.101-.062 67.624.004 70.398c.065 2.679.442 5.151 1.324 7.415.881 2.264 2.121 4.222 3.712 5.873 1.59 1.655 3.502 2.952 5.74 3.897 2.24.945 4.712 1.417 7.422 1.417 3.298 0 6.905-.797 9.91-2.389 3-1.594 6.211-3.741 8.865-6.319 1.261-1.227 3.932-3.779 5.14-5.096.958-1.044 3.476-3.8 3.487-3.821 1.268 2.479 3.234 4.946 5.177 6.789 14.735 13.97 31.674 12.718 48.744.673 4.221-2.979 10.475-9.25 10.475-9.25s-2.502-.312-5.316.785" fill="#FFF" mask="url(#b)"/></g></svg>