<svg width="70" height="70" viewBox="0 0 70 70" xmlns="http://www.w3.org/2000/svg"><title>Fill 8</title><path d="M49.235 28.672c.014.296.02.594.02.893 0 9.11-6.934 19.614-19.614 19.614a19.503 19.503 0 0 1-10.565-3.099 13.68 13.68 0 0 0 1.643.097 13.83 13.83 0 0 0 8.562-2.951 6.9 6.9 0 0 1-6.44-4.787 6.905 6.905 0 0 0 3.113-.119 6.899 6.899 0 0 1-5.53-6.759c0-.029 0-.057.001-.086a6.865 6.865 0 0 0 3.122.862 6.89 6.89 0 0 1-3.066-5.738c0-1.263.339-2.447.932-3.465 3.4 4.17 8.48 6.915 14.21 7.202a6.848 6.848 0 0 1-.178-1.571 6.893 6.893 0 0 1 6.893-6.893c1.982 0 3.774.837 5.03 2.177a13.824 13.824 0 0 0 4.379-1.673 6.922 6.922 0 0 1-3.03 3.814 13.798 13.798 0 0 0 3.959-1.086 14.006 14.006 0 0 1-3.441 3.568M35 0C15.67 0 0 15.67 0 35s15.67 35 35 35 35-15.67 35-35S54.33 0 35 0" fill="#FFF" fill-rule="evenodd"/></svg>