<?xml version="1.0" encoding="UTF-8"?>
<svg width="1312px" height="427px" viewBox="0 0 1312 427" version="1.1" xmlns="http://www.w3.org/2000/svg" xmlns:xlink="http://www.w3.org/1999/xlink">
    <!-- Generator: Sketch 49 (51002) - http://www.bohemiancoding.com/sketch -->
    <title>Group 5</title>
    <desc>Created with Sketch.</desc>
    <defs></defs>
    <g id="Blog" stroke="none" stroke-width="1" fill="none" fill-rule="evenodd" opacity="0.0800000057">
        <g id="Work-v1.0" transform="translate(-176.000000, -268.000000)" fill="#FFFFFF">
            <g id="Hero" transform="translate(94.000000, 140.000000)">
                <g id="Group-4">
                    <g id="Group-5" transform="translate(82.000000, 128.000000)">
                        <g id="Group-4" transform="translate(0.000000, 68.285714)">
                            <path d="M95.9621212,0 L13.7088745,0 C6.16899351,0 0,6.18562152 0,13.7458256 L0,61.8562152 C0,69.4164193 6.16899351,75.6020408 13.7088745,75.6020408 L41.1266234,75.6020408 L68.5443723,96.2207792 L68.5443723,75.6020408 L95.9621212,75.6020408 C103.502002,75.6020408 109.670996,69.4164193 109.670996,61.8562152 L109.670996,13.7458256 C109.670996,6.18562152 103.502002,0 95.9621212,0" id="Page-1"></path>
                            <path d="M95.9621212,127.25974 L13.7088745,127.25974 C6.16899351,127.25974 0,133.445362 0,141.005566 L0,189.115955 C0,196.67616 6.16899351,202.861781 13.7088745,202.861781 L41.1266234,202.861781 L68.5443723,223.480519 L68.5443723,202.861781 L95.9621212,202.861781 C103.502002,202.861781 109.670996,196.67616 109.670996,189.115955 L109.670996,141.005566 C109.670996,133.445362 103.502002,127.25974 95.9621212,127.25974" id="Page-1-Copy-2"></path>
                            <path d="M95.9621212,254.519481 L13.7088745,254.519481 C6.16899351,254.519481 0,260.705102 0,268.265306 L0,316.375696 C0,323.9359 6.16899351,330.121521 13.7088745,330.121521 L41.1266234,330.121521 L68.5443723,350.74026 L68.5443723,330.121521 L95.9621212,330.121521 C103.502002,330.121521 109.670996,323.9359 109.670996,316.375696 L109.670996,268.265306 C109.670996,260.705102 103.502002,254.519481 95.9621212,254.519481" id="Page-1-Copy-3"></path>
                        </g>
                        <g id="Group-4-Copy-4" transform="translate(686.995671, 68.285714)">
                            <path d="M95.9621212,0 L13.7088745,0 C6.16899351,0 0,6.18562152 0,13.7458256 L0,61.8562152 C0,69.4164193 6.16899351,75.6020408 13.7088745,75.6020408 L41.1266234,75.6020408 L68.5443723,96.2207792 L68.5443723,75.6020408 L95.9621212,75.6020408 C103.502002,75.6020408 109.670996,69.4164193 109.670996,61.8562152 L109.670996,13.7458256 C109.670996,6.18562152 103.502002,0 95.9621212,0" id="Page-1"></path>
                            <path d="M95.9621212,127.25974 L13.7088745,127.25974 C6.16899351,127.25974 0,133.445362 0,141.005566 L0,189.115955 C0,196.67616 6.16899351,202.861781 13.7088745,202.861781 L41.1266234,202.861781 L68.5443723,223.480519 L68.5443723,202.861781 L95.9621212,202.861781 C103.502002,202.861781 109.670996,196.67616 109.670996,189.115955 L109.670996,141.005566 C109.670996,133.445362 103.502002,127.25974 95.9621212,127.25974" id="Page-1-Copy-2"></path>
                            <path d="M95.9621212,254.519481 L13.7088745,254.519481 C6.16899351,254.519481 0,260.705102 0,268.265306 L0,316.375696 C0,323.9359 6.16899351,330.121521 13.7088745,330.121521 L41.1266234,330.121521 L68.5443723,350.74026 L68.5443723,330.121521 L95.9621212,330.121521 C103.502002,330.121521 109.670996,323.9359 109.670996,316.375696 L109.670996,268.265306 C109.670996,260.705102 103.502002,254.519481 95.9621212,254.519481" id="Page-1-Copy-3"></path>
                        </g>
                        <g id="Group-4-Copy-2" transform="translate(343.497835, 68.285714)">
                            <path d="M95.9621212,0 L13.7088745,0 C6.16899351,0 0,6.18562152 0,13.7458256 L0,61.8562152 C0,69.4164193 6.16899351,75.6020408 13.7088745,75.6020408 L41.1266234,75.6020408 L68.5443723,96.2207792 L68.5443723,75.6020408 L95.9621212,75.6020408 C103.502002,75.6020408 109.670996,69.4164193 109.670996,61.8562152 L109.670996,13.7458256 C109.670996,6.18562152 103.502002,0 95.9621212,0" id="Page-1"></path>
                            <path d="M95.9621212,127.25974 L13.7088745,127.25974 C6.16899351,127.25974 0,133.445362 0,141.005566 L0,189.115955 C0,196.67616 6.16899351,202.861781 13.7088745,202.861781 L41.1266234,202.861781 L68.5443723,223.480519 L68.5443723,202.861781 L95.9621212,202.861781 C103.502002,202.861781 109.670996,196.67616 109.670996,189.115955 L109.670996,141.005566 C109.670996,133.445362 103.502002,127.25974 95.9621212,127.25974" id="Page-1-Copy-2"></path>
                            <path d="M95.9621212,254.519481 L13.7088745,254.519481 C6.16899351,254.519481 0,260.705102 0,268.265306 L0,316.375696 C0,323.9359 6.16899351,330.121521 13.7088745,330.121521 L41.1266234,330.121521 L68.5443723,350.74026 L68.5443723,330.121521 L95.9621212,330.121521 C103.502002,330.121521 109.670996,323.9359 109.670996,316.375696 L109.670996,268.265306 C109.670996,260.705102 103.502002,254.519481 95.9621212,254.519481" id="Page-1-Copy-3"></path>
                        </g>
                        <g id="Group-4-Copy-5" transform="translate(1030.493506, 68.285714)">
                            <path d="M95.9621212,0 L13.7088745,0 C6.16899351,0 0,6.18562152 0,13.7458256 L0,61.8562152 C0,69.4164193 6.16899351,75.6020408 13.7088745,75.6020408 L41.1266234,75.6020408 L68.5443723,96.2207792 L68.5443723,75.6020408 L95.9621212,75.6020408 C103.502002,75.6020408 109.670996,69.4164193 109.670996,61.8562152 L109.670996,13.7458256 C109.670996,6.18562152 103.502002,0 95.9621212,0" id="Page-1"></path>
                            <path d="M95.9621212,127.25974 L13.7088745,127.25974 C6.16899351,127.25974 0,133.445362 0,141.005566 L0,189.115955 C0,196.67616 6.16899351,202.861781 13.7088745,202.861781 L41.1266234,202.861781 L68.5443723,223.480519 L68.5443723,202.861781 L95.9621212,202.861781 C103.502002,202.861781 109.670996,196.67616 109.670996,189.115955 L109.670996,141.005566 C109.670996,133.445362 103.502002,127.25974 95.9621212,127.25974" id="Page-1-Copy-2"></path>
                            <path d="M95.9621212,254.519481 L13.7088745,254.519481 C6.16899351,254.519481 0,260.705102 0,268.265306 L0,316.375696 C0,323.9359 6.16899351,330.121521 13.7088745,330.121521 L41.1266234,330.121521 L68.5443723,350.74026 L68.5443723,330.121521 L95.9621212,330.121521 C103.502002,330.121521 109.670996,323.9359 109.670996,316.375696 L109.670996,268.265306 C109.670996,260.705102 103.502002,254.519481 95.9621212,254.519481" id="Page-1-Copy-3"></path>
                        </g>
                        <g id="Group-4-Copy" transform="translate(171.748918, 0.000000)">
                            <path d="M95.9621212,0 L13.7088745,0 C6.16899351,0 0,6.18562152 0,13.7458256 L0,61.8562152 C0,69.4164193 6.16899351,75.6020408 13.7088745,75.6020408 L41.1266234,75.6020408 L68.5443723,96.2207792 L68.5443723,75.6020408 L95.9621212,75.6020408 C103.502002,75.6020408 109.670996,69.4164193 109.670996,61.8562152 L109.670996,13.7458256 C109.670996,6.18562152 103.502002,0 95.9621212,0" id="Page-1"></path>
                            <path d="M95.9621212,127.25974 L13.7088745,127.25974 C6.16899351,127.25974 0,133.445362 0,141.005566 L0,189.115955 C0,196.67616 6.16899351,202.861781 13.7088745,202.861781 L41.1266234,202.861781 L68.5443723,223.480519 L68.5443723,202.861781 L95.9621212,202.861781 C103.502002,202.861781 109.670996,196.67616 109.670996,189.115955 L109.670996,141.005566 C109.670996,133.445362 103.502002,127.25974 95.9621212,127.25974" id="Page-1-Copy-2"></path>
                            <path d="M95.9621212,254.519481 L13.7088745,254.519481 C6.16899351,254.519481 0,260.705102 0,268.265306 L0,316.375696 C0,323.9359 6.16899351,330.121521 13.7088745,330.121521 L41.1266234,330.121521 L68.5443723,350.74026 L68.5443723,330.121521 L95.9621212,330.121521 C103.502002,330.121521 109.670996,323.9359 109.670996,316.375696 L109.670996,268.265306 C109.670996,260.705102 103.502002,254.519481 95.9621212,254.519481" id="Page-1-Copy-3"></path>
                            <path d="M95.9621212,381.779221 L13.7088745,381.779221 C6.16899351,381.779221 0,387.964842 0,395.525046 L0,443.635436 C0,451.19564 6.16899351,457.381262 13.7088745,457.381262 L41.1266234,457.381262 L68.5443723,478 L68.5443723,457.381262 L95.9621212,457.381262 C103.502002,457.381262 109.670996,451.19564 109.670996,443.635436 L109.670996,395.525046 C109.670996,387.964842 103.502002,381.779221 95.9621212,381.779221" id="Page-1-Copy-4"></path>
                        </g>
                        <g id="Group-4-Copy-6" transform="translate(858.744589, 0.000000)">
                            <path d="M95.9621212,0 L13.7088745,0 C6.16899351,0 0,6.18562152 0,13.7458256 L0,61.8562152 C0,69.4164193 6.16899351,75.6020408 13.7088745,75.6020408 L41.1266234,75.6020408 L68.5443723,96.2207792 L68.5443723,75.6020408 L95.9621212,75.6020408 C103.502002,75.6020408 109.670996,69.4164193 109.670996,61.8562152 L109.670996,13.7458256 C109.670996,6.18562152 103.502002,0 95.9621212,0" id="Page-1"></path>
                            <path d="M95.9621212,127.25974 L13.7088745,127.25974 C6.16899351,127.25974 0,133.445362 0,141.005566 L0,189.115955 C0,196.67616 6.16899351,202.861781 13.7088745,202.861781 L41.1266234,202.861781 L68.5443723,223.480519 L68.5443723,202.861781 L95.9621212,202.861781 C103.502002,202.861781 109.670996,196.67616 109.670996,189.115955 L109.670996,141.005566 C109.670996,133.445362 103.502002,127.25974 95.9621212,127.25974" id="Page-1-Copy-2"></path>
                            <path d="M95.9621212,254.519481 L13.7088745,254.519481 C6.16899351,254.519481 0,260.705102 0,268.265306 L0,316.375696 C0,323.9359 6.16899351,330.121521 13.7088745,330.121521 L41.1266234,330.121521 L68.5443723,350.74026 L68.5443723,330.121521 L95.9621212,330.121521 C103.502002,330.121521 109.670996,323.9359 109.670996,316.375696 L109.670996,268.265306 C109.670996,260.705102 103.502002,254.519481 95.9621212,254.519481" id="Page-1-Copy-3"></path>
                            <path d="M95.9621212,381.779221 L13.7088745,381.779221 C6.16899351,381.779221 0,387.964842 0,395.525046 L0,443.635436 C0,451.19564 6.16899351,457.381262 13.7088745,457.381262 L41.1266234,457.381262 L68.5443723,478 L68.5443723,457.381262 L95.9621212,457.381262 C103.502002,457.381262 109.670996,451.19564 109.670996,443.635436 L109.670996,395.525046 C109.670996,387.964842 103.502002,381.779221 95.9621212,381.779221" id="Page-1-Copy-4"></path>
                        </g>
                        <g id="Group-4-Copy-3" transform="translate(515.246753, 0.000000)">
                            <path d="M95.9621212,0 L13.7088745,0 C6.16899351,0 0,6.18562152 0,13.7458256 L0,61.8562152 C0,69.4164193 6.16899351,75.6020408 13.7088745,75.6020408 L41.1266234,75.6020408 L68.5443723,96.2207792 L68.5443723,75.6020408 L95.9621212,75.6020408 C103.502002,75.6020408 109.670996,69.4164193 109.670996,61.8562152 L109.670996,13.7458256 C109.670996,6.18562152 103.502002,0 95.9621212,0" id="Page-1"></path>
                            <path d="M95.9621212,127.25974 L13.7088745,127.25974 C6.16899351,127.25974 0,133.445362 0,141.005566 L0,189.115955 C0,196.67616 6.16899351,202.861781 13.7088745,202.861781 L41.1266234,202.861781 L68.5443723,223.480519 L68.5443723,202.861781 L95.9621212,202.861781 C103.502002,202.861781 109.670996,196.67616 109.670996,189.115955 L109.670996,141.005566 C109.670996,133.445362 103.502002,127.25974 95.9621212,127.25974" id="Page-1-Copy-2"></path>
                            <path d="M95.9621212,254.519481 L13.7088745,254.519481 C6.16899351,254.519481 0,260.705102 0,268.265306 L0,316.375696 C0,323.9359 6.16899351,330.121521 13.7088745,330.121521 L41.1266234,330.121521 L68.5443723,350.74026 L68.5443723,330.121521 L95.9621212,330.121521 C103.502002,330.121521 109.670996,323.9359 109.670996,316.375696 L109.670996,268.265306 C109.670996,260.705102 103.502002,254.519481 95.9621212,254.519481" id="Page-1-Copy-3"></path>
                            <path d="M95.9621212,381.779221 L13.7088745,381.779221 C6.16899351,381.779221 0,387.964842 0,395.525046 L0,443.635436 C0,451.19564 6.16899351,457.381262 13.7088745,457.381262 L41.1266234,457.381262 L68.5443723,478 L68.5443723,457.381262 L95.9621212,457.381262 C103.502002,457.381262 109.670996,451.19564 109.670996,443.635436 L109.670996,395.525046 C109.670996,387.964842 103.502002,381.779221 95.9621212,381.779221" id="Page-1-Copy-4"></path>
                        </g>
                        <g id="Group-4-Copy-7" transform="translate(1202.242424, 0.000000)">
                            <path d="M95.9621212,0 L13.7088745,0 C6.16899351,0 0,6.18562152 0,13.7458256 L0,61.8562152 C0,69.4164193 6.16899351,75.6020408 13.7088745,75.6020408 L41.1266234,75.6020408 L68.5443723,96.2207792 L68.5443723,75.6020408 L95.9621212,75.6020408 C103.502002,75.6020408 109.670996,69.4164193 109.670996,61.8562152 L109.670996,13.7458256 C109.670996,6.18562152 103.502002,0 95.9621212,0" id="Page-1"></path>
                            <path d="M95.9621212,127.25974 L13.7088745,127.25974 C6.16899351,127.25974 0,133.445362 0,141.005566 L0,189.115955 C0,196.67616 6.16899351,202.861781 13.7088745,202.861781 L41.1266234,202.861781 L68.5443723,223.480519 L68.5443723,202.861781 L95.9621212,202.861781 C103.502002,202.861781 109.670996,196.67616 109.670996,189.115955 L109.670996,141.005566 C109.670996,133.445362 103.502002,127.25974 95.9621212,127.25974" id="Page-1-Copy-2"></path>
                            <path d="M95.9621212,254.519481 L13.7088745,254.519481 C6.16899351,254.519481 0,260.705102 0,268.265306 L0,316.375696 C0,323.9359 6.16899351,330.121521 13.7088745,330.121521 L41.1266234,330.121521 L68.5443723,350.74026 L68.5443723,330.121521 L95.9621212,330.121521 C103.502002,330.121521 109.670996,323.9359 109.670996,316.375696 L109.670996,268.265306 C109.670996,260.705102 103.502002,254.519481 95.9621212,254.519481" id="Page-1-Copy-3"></path>
                            <path d="M95.9621212,381.779221 L13.7088745,381.779221 C6.16899351,381.779221 0,387.964842 0,395.525046 L0,443.635436 C0,451.19564 6.16899351,457.381262 13.7088745,457.381262 L41.1266234,457.381262 L68.5443723,478 L68.5443723,457.381262 L95.9621212,457.381262 C103.502002,457.381262 109.670996,451.19564 109.670996,443.635436 L109.670996,395.525046 C109.670996,387.964842 103.502002,381.779221 95.9621212,381.779221" id="Page-1-Copy-4"></path>
                        </g>
                    </g>
                </g>
            </g>
        </g>
    </g>
</svg>