<?xml version="1.0" encoding="UTF-8"?>
<svg width="1438px" height="508px" viewBox="0 0 1438 508" version="1.1" xmlns="http://www.w3.org/2000/svg" xmlns:xlink="http://www.w3.org/1999/xlink">
    <!-- Generator: Sketch 49 (51002) - http://www.bohemiancoding.com/sketch -->
    <title>Group 10</title>
    <desc>Created with Sketch.</desc>
    <defs>
        <polygon id="path-1" points="0 0 104 0 104 67 0 67"></polygon>
        <polygon id="path-3" points="0 0 104 0 104 67 0 67"></polygon>
        <polygon id="path-5" points="0 0 104 0 104 67 0 67"></polygon>
        <polygon id="path-7" points="0 0 104 0 104 67 0 67"></polygon>
        <polygon id="path-9" points="0 0 104 0 104 67 0 67"></polygon>
        <polygon id="path-11" points="0 0 104 0 104 67 0 67"></polygon>
        <polygon id="path-13" points="0 0 104 0 104 67 0 67"></polygon>
        <polygon id="path-15" points="0 0 104 0 104 67 0 67"></polygon>
        <polygon id="path-17" points="0 0 104 0 104 67 0 67"></polygon>
        <polygon id="path-19" points="0 0 104 0 104 67 0 67"></polygon>
        <polygon id="path-21" points="0 0 104 0 104 67 0 67"></polygon>
        <polygon id="path-23" points="0 0 104 0 104 67 0 67"></polygon>
        <polygon id="path-25" points="0 0 104 0 104 67 0 67"></polygon>
        <polygon id="path-27" points="0 0 104 0 104 67 0 67"></polygon>
        <polygon id="path-29" points="0 0 104 0 104 67 0 67"></polygon>
        <polygon id="path-31" points="0 0 104 0 104 67 0 67"></polygon>
        <polygon id="path-33" points="0 0 104 0 104 67 0 67"></polygon>
        <polygon id="path-35" points="0 0 104 0 104 67 0 67"></polygon>
        <polygon id="path-37" points="0 0 104 0 104 67 0 67"></polygon>
        <polygon id="path-39" points="0 0 104 0 104 67 0 67"></polygon>
        <polygon id="path-41" points="0 0 104 0 104 67 0 67"></polygon>
        <polygon id="path-43" points="0 0 104 0 104 67 0 67"></polygon>
        <polygon id="path-45" points="0 0 104 0 104 67 0 67"></polygon>
        <polygon id="path-47" points="0 0 104 0 104 67 0 67"></polygon>
        <polygon id="path-49" points="0 0 104 0 104 67 0 67"></polygon>
        <polygon id="path-51" points="0 0 104 0 104 67 0 67"></polygon>
        <polygon id="path-53" points="0 0 104 0 104 67 0 67"></polygon>
        <polygon id="path-55" points="0 0 104 0 104 67 0 67"></polygon>
        <polygon id="path-57" points="0 0 104 0 104 67 0 67"></polygon>
        <polygon id="path-59" points="0 0 104 0 104 67 0 67"></polygon>
        <polygon id="path-61" points="0 0 104 0 104 67 0 67"></polygon>
        <polygon id="path-63" points="0 0 104 0 104 67 0 67"></polygon>
        <polygon id="path-65" points="0 0 104 0 104 67 0 67"></polygon>
        <polygon id="path-67" points="0 0 104 0 104 67 0 67"></polygon>
        <polygon id="path-69" points="0 0 104 0 104 67 0 67"></polygon>
        <polygon id="path-71" points="0 0 104 0 104 67 0 67"></polygon>
    </defs>
    <g id="Work" stroke="none" stroke-width="1" fill="none" fill-rule="evenodd" opacity="0.0800000057">
        <g id="Work-v1.0" transform="translate(-94.000000, -187.000000)">
            <g id="Hero" transform="translate(94.000000, 140.000000)">
                <g id="Group-4">
                    <g id="Group-10" transform="translate(0.000000, 47.000000)">
                        <g id="Group-5" transform="translate(0.000000, 68.000000)">
                            <g id="Page-1">
                                <mask id="mask-2" fill="white">
                                    <use xlink:href="#path-1"></use>
                                </mask>
                                <g id="Clip-2"></g>
                                <path d="M101.762838,17.822 C98.5584826,19.4935345 59.1979529,40.0694655 57.2358198,41.0917931 C55.2725311,42.116431 53.8974201,42.2492759 51.9999981,42.2492759 C50.1014205,42.2492759 48.727465,42.116431 46.7630208,41.0917931 C44.8008876,40.0694655 5.44266907,19.4935345 2.23600271,17.822 C-0.0196415265,16.6460345 2.91606532e-06,18.0253103 2.91606532e-06,19.0903793 L2.91606532e-06,61.4609483 C2.91606532e-06,63.8821897 3.22631373,67 5.73040238,67 L98.2695937,67 C100.773682,67 103.999993,63.8821897 103.999993,61.4609483 L103.999993,19.0903793 C103.999993,18.0253103 104.020793,16.6460345 101.762838,17.822 M3.43084704,6.27027586 C6.25155789,7.78586207 45.309332,28.7591724 46.7630208,29.540069 C48.2178651,30.3209655 50.1014205,30.6975517 51.9999981,30.6975517 C53.8974201,30.6975517 55.7809755,30.3209655 57.2358198,29.540069 C58.6895085,28.7591724 97.7461271,7.78586207 100.567994,6.27027586 C103.38986,4.75584483 106.061504,0 100.875371,0 L3.12231374,0 C-2.05919689,0 0.608980637,4.75584483 3.43084704,6.27027586" id="Fill-1" fill="#FFFFFF" mask="url(#mask-2)"></path>
                            </g>
                            <g id="Page-1-Copy-2" transform="translate(0.000000, 274.000000)">
                                <mask id="mask-4" fill="white">
                                    <use xlink:href="#path-3"></use>
                                </mask>
                                <g id="Clip-2"></g>
                                <path d="M101.762838,17.822 C98.5584826,19.4935345 59.1979529,40.0694655 57.2358198,41.0917931 C55.2725311,42.116431 53.8974201,42.2492759 51.9999981,42.2492759 C50.1014205,42.2492759 48.727465,42.116431 46.7630208,41.0917931 C44.8008876,40.0694655 5.44266907,19.4935345 2.23600271,17.822 C-0.0196415265,16.6460345 2.91606532e-06,18.0253103 2.91606532e-06,19.0903793 L2.91606532e-06,61.4609483 C2.91606532e-06,63.8821897 3.22631373,67 5.73040238,67 L98.2695937,67 C100.773682,67 103.999993,63.8821897 103.999993,61.4609483 L103.999993,19.0903793 C103.999993,18.0253103 104.020793,16.6460345 101.762838,17.822 M3.43084704,6.27027586 C6.25155789,7.78586207 45.309332,28.7591724 46.7630208,29.540069 C48.2178651,30.3209655 50.1014205,30.6975517 51.9999981,30.6975517 C53.8974201,30.6975517 55.7809755,30.3209655 57.2358198,29.540069 C58.6895085,28.7591724 97.7461271,7.78586207 100.567994,6.27027586 C103.38986,4.75584483 106.061504,0 100.875371,0 L3.12231374,0 C-2.05919689,0 0.608980637,4.75584483 3.43084704,6.27027586" id="Fill-1" fill="#FFFFFF" mask="url(#mask-4)"></path>
                            </g>
                            <g id="Page-1" transform="translate(0.000000, 137.000000)">
                                <mask id="mask-6" fill="white">
                                    <use xlink:href="#path-5"></use>
                                </mask>
                                <g id="Clip-2"></g>
                                <path d="M101.762838,17.822 C98.5584826,19.4935345 59.1979529,40.0694655 57.2358198,41.0917931 C55.2725311,42.116431 53.8974201,42.2492759 51.9999981,42.2492759 C50.1014205,42.2492759 48.727465,42.116431 46.7630208,41.0917931 C44.8008876,40.0694655 5.44266907,19.4935345 2.23600271,17.822 C-0.0196415265,16.6460345 2.91606532e-06,18.0253103 2.91606532e-06,19.0903793 L2.91606532e-06,61.4609483 C2.91606532e-06,63.8821897 3.22631373,67 5.73040238,67 L98.2695937,67 C100.773682,67 103.999993,63.8821897 103.999993,61.4609483 L103.999993,19.0903793 C103.999993,18.0253103 104.020793,16.6460345 101.762838,17.822 M3.43084704,6.27027586 C6.25155789,7.78586207 45.309332,28.7591724 46.7630208,29.540069 C48.2178651,30.3209655 50.1014205,30.6975517 51.9999981,30.6975517 C53.8974201,30.6975517 55.7809755,30.3209655 57.2358198,29.540069 C58.6895085,28.7591724 97.7461271,7.78586207 100.567994,6.27027586 C103.38986,4.75584483 106.061504,0 100.875371,0 L3.12231374,0 C-2.05919689,0 0.608980637,4.75584483 3.43084704,6.27027586" id="Fill-1" fill="#FFFFFF" mask="url(#mask-6)"></path>
                            </g>
                            <g id="Page-1-Copy-3" transform="translate(0.000000, 411.000000)">
                                <mask id="mask-8" fill="white">
                                    <use xlink:href="#path-7"></use>
                                </mask>
                                <g id="Clip-2"></g>
                                <path d="M101.762838,17.822 C98.5584826,19.4935345 59.1979529,40.0694655 57.2358198,41.0917931 C55.2725311,42.116431 53.8974201,42.2492759 51.9999981,42.2492759 C50.1014205,42.2492759 48.727465,42.116431 46.7630208,41.0917931 C44.8008876,40.0694655 5.44266907,19.4935345 2.23600271,17.822 C-0.0196415265,16.6460345 2.91606532e-06,18.0253103 2.91606532e-06,19.0903793 L2.91606532e-06,61.4609483 C2.91606532e-06,63.8821897 3.22631373,67 5.73040238,67 L98.2695937,67 C100.773682,67 103.999993,63.8821897 103.999993,61.4609483 L103.999993,19.0903793 C103.999993,18.0253103 104.020793,16.6460345 101.762838,17.822 M3.43084704,6.27027586 C6.25155789,7.78586207 45.309332,28.7591724 46.7630208,29.540069 C48.2178651,30.3209655 50.1014205,30.6975517 51.9999981,30.6975517 C53.8974201,30.6975517 55.7809755,30.3209655 57.2358198,29.540069 C58.6895085,28.7591724 97.7461271,7.78586207 100.567994,6.27027586 C103.38986,4.75584483 106.061504,0 100.875371,0 L3.12231374,0 C-2.05919689,0 0.608980637,4.75584483 3.43084704,6.27027586" id="Fill-1" fill="#FFFFFF" mask="url(#mask-8)"></path>
                            </g>
                        </g>
                        <g id="Group-5-Copy-4" transform="translate(696.000000, 68.000000)">
                            <g id="Page-1">
                                <mask id="mask-10" fill="white">
                                    <use xlink:href="#path-9"></use>
                                </mask>
                                <g id="Clip-2"></g>
                                <path d="M101.762838,17.822 C98.5584826,19.4935345 59.1979529,40.0694655 57.2358198,41.0917931 C55.2725311,42.116431 53.8974201,42.2492759 51.9999981,42.2492759 C50.1014205,42.2492759 48.727465,42.116431 46.7630208,41.0917931 C44.8008876,40.0694655 5.44266907,19.4935345 2.23600271,17.822 C-0.0196415265,16.6460345 2.91606532e-06,18.0253103 2.91606532e-06,19.0903793 L2.91606532e-06,61.4609483 C2.91606532e-06,63.8821897 3.22631373,67 5.73040238,67 L98.2695937,67 C100.773682,67 103.999993,63.8821897 103.999993,61.4609483 L103.999993,19.0903793 C103.999993,18.0253103 104.020793,16.6460345 101.762838,17.822 M3.43084704,6.27027586 C6.25155789,7.78586207 45.309332,28.7591724 46.7630208,29.540069 C48.2178651,30.3209655 50.1014205,30.6975517 51.9999981,30.6975517 C53.8974201,30.6975517 55.7809755,30.3209655 57.2358198,29.540069 C58.6895085,28.7591724 97.7461271,7.78586207 100.567994,6.27027586 C103.38986,4.75584483 106.061504,0 100.875371,0 L3.12231374,0 C-2.05919689,0 0.608980637,4.75584483 3.43084704,6.27027586" id="Fill-1" fill="#FFFFFF" mask="url(#mask-10)"></path>
                            </g>
                            <g id="Page-1-Copy-2" transform="translate(0.000000, 274.000000)">
                                <mask id="mask-12" fill="white">
                                    <use xlink:href="#path-11"></use>
                                </mask>
                                <g id="Clip-2"></g>
                                <path d="M101.762838,17.822 C98.5584826,19.4935345 59.1979529,40.0694655 57.2358198,41.0917931 C55.2725311,42.116431 53.8974201,42.2492759 51.9999981,42.2492759 C50.1014205,42.2492759 48.727465,42.116431 46.7630208,41.0917931 C44.8008876,40.0694655 5.44266907,19.4935345 2.23600271,17.822 C-0.0196415265,16.6460345 2.91606532e-06,18.0253103 2.91606532e-06,19.0903793 L2.91606532e-06,61.4609483 C2.91606532e-06,63.8821897 3.22631373,67 5.73040238,67 L98.2695937,67 C100.773682,67 103.999993,63.8821897 103.999993,61.4609483 L103.999993,19.0903793 C103.999993,18.0253103 104.020793,16.6460345 101.762838,17.822 M3.43084704,6.27027586 C6.25155789,7.78586207 45.309332,28.7591724 46.7630208,29.540069 C48.2178651,30.3209655 50.1014205,30.6975517 51.9999981,30.6975517 C53.8974201,30.6975517 55.7809755,30.3209655 57.2358198,29.540069 C58.6895085,28.7591724 97.7461271,7.78586207 100.567994,6.27027586 C103.38986,4.75584483 106.061504,0 100.875371,0 L3.12231374,0 C-2.05919689,0 0.608980637,4.75584483 3.43084704,6.27027586" id="Fill-1" fill="#FFFFFF" mask="url(#mask-12)"></path>
                            </g>
                            <g id="Page-1" transform="translate(0.000000, 137.000000)">
                                <mask id="mask-14" fill="white">
                                    <use xlink:href="#path-13"></use>
                                </mask>
                                <g id="Clip-2"></g>
                                <path d="M101.762838,17.822 C98.5584826,19.4935345 59.1979529,40.0694655 57.2358198,41.0917931 C55.2725311,42.116431 53.8974201,42.2492759 51.9999981,42.2492759 C50.1014205,42.2492759 48.727465,42.116431 46.7630208,41.0917931 C44.8008876,40.0694655 5.44266907,19.4935345 2.23600271,17.822 C-0.0196415265,16.6460345 2.91606532e-06,18.0253103 2.91606532e-06,19.0903793 L2.91606532e-06,61.4609483 C2.91606532e-06,63.8821897 3.22631373,67 5.73040238,67 L98.2695937,67 C100.773682,67 103.999993,63.8821897 103.999993,61.4609483 L103.999993,19.0903793 C103.999993,18.0253103 104.020793,16.6460345 101.762838,17.822 M3.43084704,6.27027586 C6.25155789,7.78586207 45.309332,28.7591724 46.7630208,29.540069 C48.2178651,30.3209655 50.1014205,30.6975517 51.9999981,30.6975517 C53.8974201,30.6975517 55.7809755,30.3209655 57.2358198,29.540069 C58.6895085,28.7591724 97.7461271,7.78586207 100.567994,6.27027586 C103.38986,4.75584483 106.061504,0 100.875371,0 L3.12231374,0 C-2.05919689,0 0.608980637,4.75584483 3.43084704,6.27027586" id="Fill-1" fill="#FFFFFF" mask="url(#mask-14)"></path>
                            </g>
                            <g id="Page-1-Copy-3" transform="translate(0.000000, 411.000000)">
                                <mask id="mask-16" fill="white">
                                    <use xlink:href="#path-15"></use>
                                </mask>
                                <g id="Clip-2"></g>
                                <path d="M101.762838,17.822 C98.5584826,19.4935345 59.1979529,40.0694655 57.2358198,41.0917931 C55.2725311,42.116431 53.8974201,42.2492759 51.9999981,42.2492759 C50.1014205,42.2492759 48.727465,42.116431 46.7630208,41.0917931 C44.8008876,40.0694655 5.44266907,19.4935345 2.23600271,17.822 C-0.0196415265,16.6460345 2.91606532e-06,18.0253103 2.91606532e-06,19.0903793 L2.91606532e-06,61.4609483 C2.91606532e-06,63.8821897 3.22631373,67 5.73040238,67 L98.2695937,67 C100.773682,67 103.999993,63.8821897 103.999993,61.4609483 L103.999993,19.0903793 C103.999993,18.0253103 104.020793,16.6460345 101.762838,17.822 M3.43084704,6.27027586 C6.25155789,7.78586207 45.309332,28.7591724 46.7630208,29.540069 C48.2178651,30.3209655 50.1014205,30.6975517 51.9999981,30.6975517 C53.8974201,30.6975517 55.7809755,30.3209655 57.2358198,29.540069 C58.6895085,28.7591724 97.7461271,7.78586207 100.567994,6.27027586 C103.38986,4.75584483 106.061504,0 100.875371,0 L3.12231374,0 C-2.05919689,0 0.608980637,4.75584483 3.43084704,6.27027586" id="Fill-1" fill="#FFFFFF" mask="url(#mask-16)"></path>
                            </g>
                        </g>
                        <g id="Group-5-Copy-2" transform="translate(348.000000, 68.000000)">
                            <g id="Page-1">
                                <mask id="mask-18" fill="white">
                                    <use xlink:href="#path-17"></use>
                                </mask>
                                <g id="Clip-2"></g>
                                <path d="M101.762838,17.822 C98.5584826,19.4935345 59.1979529,40.0694655 57.2358198,41.0917931 C55.2725311,42.116431 53.8974201,42.2492759 51.9999981,42.2492759 C50.1014205,42.2492759 48.727465,42.116431 46.7630208,41.0917931 C44.8008876,40.0694655 5.44266907,19.4935345 2.23600271,17.822 C-0.0196415265,16.6460345 2.91606532e-06,18.0253103 2.91606532e-06,19.0903793 L2.91606532e-06,61.4609483 C2.91606532e-06,63.8821897 3.22631373,67 5.73040238,67 L98.2695937,67 C100.773682,67 103.999993,63.8821897 103.999993,61.4609483 L103.999993,19.0903793 C103.999993,18.0253103 104.020793,16.6460345 101.762838,17.822 M3.43084704,6.27027586 C6.25155789,7.78586207 45.309332,28.7591724 46.7630208,29.540069 C48.2178651,30.3209655 50.1014205,30.6975517 51.9999981,30.6975517 C53.8974201,30.6975517 55.7809755,30.3209655 57.2358198,29.540069 C58.6895085,28.7591724 97.7461271,7.78586207 100.567994,6.27027586 C103.38986,4.75584483 106.061504,0 100.875371,0 L3.12231374,0 C-2.05919689,0 0.608980637,4.75584483 3.43084704,6.27027586" id="Fill-1" fill="#FFFFFF" mask="url(#mask-18)"></path>
                            </g>
                            <g id="Page-1-Copy-2" transform="translate(0.000000, 274.000000)">
                                <mask id="mask-20" fill="white">
                                    <use xlink:href="#path-19"></use>
                                </mask>
                                <g id="Clip-2"></g>
                                <path d="M101.762838,17.822 C98.5584826,19.4935345 59.1979529,40.0694655 57.2358198,41.0917931 C55.2725311,42.116431 53.8974201,42.2492759 51.9999981,42.2492759 C50.1014205,42.2492759 48.727465,42.116431 46.7630208,41.0917931 C44.8008876,40.0694655 5.44266907,19.4935345 2.23600271,17.822 C-0.0196415265,16.6460345 2.91606532e-06,18.0253103 2.91606532e-06,19.0903793 L2.91606532e-06,61.4609483 C2.91606532e-06,63.8821897 3.22631373,67 5.73040238,67 L98.2695937,67 C100.773682,67 103.999993,63.8821897 103.999993,61.4609483 L103.999993,19.0903793 C103.999993,18.0253103 104.020793,16.6460345 101.762838,17.822 M3.43084704,6.27027586 C6.25155789,7.78586207 45.309332,28.7591724 46.7630208,29.540069 C48.2178651,30.3209655 50.1014205,30.6975517 51.9999981,30.6975517 C53.8974201,30.6975517 55.7809755,30.3209655 57.2358198,29.540069 C58.6895085,28.7591724 97.7461271,7.78586207 100.567994,6.27027586 C103.38986,4.75584483 106.061504,0 100.875371,0 L3.12231374,0 C-2.05919689,0 0.608980637,4.75584483 3.43084704,6.27027586" id="Fill-1" fill="#FFFFFF" mask="url(#mask-20)"></path>
                            </g>
                            <g id="Page-1" transform="translate(0.000000, 137.000000)">
                                <mask id="mask-22" fill="white">
                                    <use xlink:href="#path-21"></use>
                                </mask>
                                <g id="Clip-2"></g>
                                <path d="M101.762838,17.822 C98.5584826,19.4935345 59.1979529,40.0694655 57.2358198,41.0917931 C55.2725311,42.116431 53.8974201,42.2492759 51.9999981,42.2492759 C50.1014205,42.2492759 48.727465,42.116431 46.7630208,41.0917931 C44.8008876,40.0694655 5.44266907,19.4935345 2.23600271,17.822 C-0.0196415265,16.6460345 2.91606532e-06,18.0253103 2.91606532e-06,19.0903793 L2.91606532e-06,61.4609483 C2.91606532e-06,63.8821897 3.22631373,67 5.73040238,67 L98.2695937,67 C100.773682,67 103.999993,63.8821897 103.999993,61.4609483 L103.999993,19.0903793 C103.999993,18.0253103 104.020793,16.6460345 101.762838,17.822 M3.43084704,6.27027586 C6.25155789,7.78586207 45.309332,28.7591724 46.7630208,29.540069 C48.2178651,30.3209655 50.1014205,30.6975517 51.9999981,30.6975517 C53.8974201,30.6975517 55.7809755,30.3209655 57.2358198,29.540069 C58.6895085,28.7591724 97.7461271,7.78586207 100.567994,6.27027586 C103.38986,4.75584483 106.061504,0 100.875371,0 L3.12231374,0 C-2.05919689,0 0.608980637,4.75584483 3.43084704,6.27027586" id="Fill-1" fill="#FFFFFF" mask="url(#mask-22)"></path>
                            </g>
                            <g id="Page-1-Copy-3" transform="translate(0.000000, 411.000000)">
                                <mask id="mask-24" fill="white">
                                    <use xlink:href="#path-23"></use>
                                </mask>
                                <g id="Clip-2"></g>
                                <path d="M101.762838,17.822 C98.5584826,19.4935345 59.1979529,40.0694655 57.2358198,41.0917931 C55.2725311,42.116431 53.8974201,42.2492759 51.9999981,42.2492759 C50.1014205,42.2492759 48.727465,42.116431 46.7630208,41.0917931 C44.8008876,40.0694655 5.44266907,19.4935345 2.23600271,17.822 C-0.0196415265,16.6460345 2.91606532e-06,18.0253103 2.91606532e-06,19.0903793 L2.91606532e-06,61.4609483 C2.91606532e-06,63.8821897 3.22631373,67 5.73040238,67 L98.2695937,67 C100.773682,67 103.999993,63.8821897 103.999993,61.4609483 L103.999993,19.0903793 C103.999993,18.0253103 104.020793,16.6460345 101.762838,17.822 M3.43084704,6.27027586 C6.25155789,7.78586207 45.309332,28.7591724 46.7630208,29.540069 C48.2178651,30.3209655 50.1014205,30.6975517 51.9999981,30.6975517 C53.8974201,30.6975517 55.7809755,30.3209655 57.2358198,29.540069 C58.6895085,28.7591724 97.7461271,7.78586207 100.567994,6.27027586 C103.38986,4.75584483 106.061504,0 100.875371,0 L3.12231374,0 C-2.05919689,0 0.608980637,4.75584483 3.43084704,6.27027586" id="Fill-1" fill="#FFFFFF" mask="url(#mask-24)"></path>
                            </g>
                        </g>
                        <g id="Group-5-Copy-5" transform="translate(1044.000000, 68.000000)">
                            <g id="Page-1">
                                <mask id="mask-26" fill="white">
                                    <use xlink:href="#path-25"></use>
                                </mask>
                                <g id="Clip-2"></g>
                                <path d="M101.762838,17.822 C98.5584826,19.4935345 59.1979529,40.0694655 57.2358198,41.0917931 C55.2725311,42.116431 53.8974201,42.2492759 51.9999981,42.2492759 C50.1014205,42.2492759 48.727465,42.116431 46.7630208,41.0917931 C44.8008876,40.0694655 5.44266907,19.4935345 2.23600271,17.822 C-0.0196415265,16.6460345 2.91606532e-06,18.0253103 2.91606532e-06,19.0903793 L2.91606532e-06,61.4609483 C2.91606532e-06,63.8821897 3.22631373,67 5.73040238,67 L98.2695937,67 C100.773682,67 103.999993,63.8821897 103.999993,61.4609483 L103.999993,19.0903793 C103.999993,18.0253103 104.020793,16.6460345 101.762838,17.822 M3.43084704,6.27027586 C6.25155789,7.78586207 45.309332,28.7591724 46.7630208,29.540069 C48.2178651,30.3209655 50.1014205,30.6975517 51.9999981,30.6975517 C53.8974201,30.6975517 55.7809755,30.3209655 57.2358198,29.540069 C58.6895085,28.7591724 97.7461271,7.78586207 100.567994,6.27027586 C103.38986,4.75584483 106.061504,0 100.875371,0 L3.12231374,0 C-2.05919689,0 0.608980637,4.75584483 3.43084704,6.27027586" id="Fill-1" fill="#FFFFFF" mask="url(#mask-26)"></path>
                            </g>
                            <g id="Page-1-Copy-2" transform="translate(0.000000, 274.000000)">
                                <mask id="mask-28" fill="white">
                                    <use xlink:href="#path-27"></use>
                                </mask>
                                <g id="Clip-2"></g>
                                <path d="M101.762838,17.822 C98.5584826,19.4935345 59.1979529,40.0694655 57.2358198,41.0917931 C55.2725311,42.116431 53.8974201,42.2492759 51.9999981,42.2492759 C50.1014205,42.2492759 48.727465,42.116431 46.7630208,41.0917931 C44.8008876,40.0694655 5.44266907,19.4935345 2.23600271,17.822 C-0.0196415265,16.6460345 2.91606532e-06,18.0253103 2.91606532e-06,19.0903793 L2.91606532e-06,61.4609483 C2.91606532e-06,63.8821897 3.22631373,67 5.73040238,67 L98.2695937,67 C100.773682,67 103.999993,63.8821897 103.999993,61.4609483 L103.999993,19.0903793 C103.999993,18.0253103 104.020793,16.6460345 101.762838,17.822 M3.43084704,6.27027586 C6.25155789,7.78586207 45.309332,28.7591724 46.7630208,29.540069 C48.2178651,30.3209655 50.1014205,30.6975517 51.9999981,30.6975517 C53.8974201,30.6975517 55.7809755,30.3209655 57.2358198,29.540069 C58.6895085,28.7591724 97.7461271,7.78586207 100.567994,6.27027586 C103.38986,4.75584483 106.061504,0 100.875371,0 L3.12231374,0 C-2.05919689,0 0.608980637,4.75584483 3.43084704,6.27027586" id="Fill-1" fill="#FFFFFF" mask="url(#mask-28)"></path>
                            </g>
                            <g id="Page-1" transform="translate(0.000000, 137.000000)">
                                <mask id="mask-30" fill="white">
                                    <use xlink:href="#path-29"></use>
                                </mask>
                                <g id="Clip-2"></g>
                                <path d="M101.762838,17.822 C98.5584826,19.4935345 59.1979529,40.0694655 57.2358198,41.0917931 C55.2725311,42.116431 53.8974201,42.2492759 51.9999981,42.2492759 C50.1014205,42.2492759 48.727465,42.116431 46.7630208,41.0917931 C44.8008876,40.0694655 5.44266907,19.4935345 2.23600271,17.822 C-0.0196415265,16.6460345 2.91606532e-06,18.0253103 2.91606532e-06,19.0903793 L2.91606532e-06,61.4609483 C2.91606532e-06,63.8821897 3.22631373,67 5.73040238,67 L98.2695937,67 C100.773682,67 103.999993,63.8821897 103.999993,61.4609483 L103.999993,19.0903793 C103.999993,18.0253103 104.020793,16.6460345 101.762838,17.822 M3.43084704,6.27027586 C6.25155789,7.78586207 45.309332,28.7591724 46.7630208,29.540069 C48.2178651,30.3209655 50.1014205,30.6975517 51.9999981,30.6975517 C53.8974201,30.6975517 55.7809755,30.3209655 57.2358198,29.540069 C58.6895085,28.7591724 97.7461271,7.78586207 100.567994,6.27027586 C103.38986,4.75584483 106.061504,0 100.875371,0 L3.12231374,0 C-2.05919689,0 0.608980637,4.75584483 3.43084704,6.27027586" id="Fill-1" fill="#FFFFFF" mask="url(#mask-30)"></path>
                            </g>
                            <g id="Page-1-Copy-3" transform="translate(0.000000, 411.000000)">
                                <mask id="mask-32" fill="white">
                                    <use xlink:href="#path-31"></use>
                                </mask>
                                <g id="Clip-2"></g>
                                <path d="M101.762838,17.822 C98.5584826,19.4935345 59.1979529,40.0694655 57.2358198,41.0917931 C55.2725311,42.116431 53.8974201,42.2492759 51.9999981,42.2492759 C50.1014205,42.2492759 48.727465,42.116431 46.7630208,41.0917931 C44.8008876,40.0694655 5.44266907,19.4935345 2.23600271,17.822 C-0.0196415265,16.6460345 2.91606532e-06,18.0253103 2.91606532e-06,19.0903793 L2.91606532e-06,61.4609483 C2.91606532e-06,63.8821897 3.22631373,67 5.73040238,67 L98.2695937,67 C100.773682,67 103.999993,63.8821897 103.999993,61.4609483 L103.999993,19.0903793 C103.999993,18.0253103 104.020793,16.6460345 101.762838,17.822 M3.43084704,6.27027586 C6.25155789,7.78586207 45.309332,28.7591724 46.7630208,29.540069 C48.2178651,30.3209655 50.1014205,30.6975517 51.9999981,30.6975517 C53.8974201,30.6975517 55.7809755,30.3209655 57.2358198,29.540069 C58.6895085,28.7591724 97.7461271,7.78586207 100.567994,6.27027586 C103.38986,4.75584483 106.061504,0 100.875371,0 L3.12231374,0 C-2.05919689,0 0.608980637,4.75584483 3.43084704,6.27027586" id="Fill-1" fill="#FFFFFF" mask="url(#mask-32)"></path>
                            </g>
                        </g>
                        <g id="Group-5-Copy-8" transform="translate(1392.000000, 68.000000)">
                            <g id="Page-1">
                                <mask id="mask-34" fill="white">
                                    <use xlink:href="#path-33"></use>
                                </mask>
                                <g id="Clip-2"></g>
                                <path d="M101.762838,17.822 C98.5584826,19.4935345 59.1979529,40.0694655 57.2358198,41.0917931 C55.2725311,42.116431 53.8974201,42.2492759 51.9999981,42.2492759 C50.1014205,42.2492759 48.727465,42.116431 46.7630208,41.0917931 C44.8008876,40.0694655 5.44266907,19.4935345 2.23600271,17.822 C-0.0196415265,16.6460345 2.91606532e-06,18.0253103 2.91606532e-06,19.0903793 L2.91606532e-06,61.4609483 C2.91606532e-06,63.8821897 3.22631373,67 5.73040238,67 L98.2695937,67 C100.773682,67 103.999993,63.8821897 103.999993,61.4609483 L103.999993,19.0903793 C103.999993,18.0253103 104.020793,16.6460345 101.762838,17.822 M3.43084704,6.27027586 C6.25155789,7.78586207 45.309332,28.7591724 46.7630208,29.540069 C48.2178651,30.3209655 50.1014205,30.6975517 51.9999981,30.6975517 C53.8974201,30.6975517 55.7809755,30.3209655 57.2358198,29.540069 C58.6895085,28.7591724 97.7461271,7.78586207 100.567994,6.27027586 C103.38986,4.75584483 106.061504,0 100.875371,0 L3.12231374,0 C-2.05919689,0 0.608980637,4.75584483 3.43084704,6.27027586" id="Fill-1" fill="#FFFFFF" mask="url(#mask-34)"></path>
                            </g>
                            <g id="Page-1-Copy-2" transform="translate(0.000000, 274.000000)">
                                <mask id="mask-36" fill="white">
                                    <use xlink:href="#path-35"></use>
                                </mask>
                                <g id="Clip-2"></g>
                                <path d="M101.762838,17.822 C98.5584826,19.4935345 59.1979529,40.0694655 57.2358198,41.0917931 C55.2725311,42.116431 53.8974201,42.2492759 51.9999981,42.2492759 C50.1014205,42.2492759 48.727465,42.116431 46.7630208,41.0917931 C44.8008876,40.0694655 5.44266907,19.4935345 2.23600271,17.822 C-0.0196415265,16.6460345 2.91606532e-06,18.0253103 2.91606532e-06,19.0903793 L2.91606532e-06,61.4609483 C2.91606532e-06,63.8821897 3.22631373,67 5.73040238,67 L98.2695937,67 C100.773682,67 103.999993,63.8821897 103.999993,61.4609483 L103.999993,19.0903793 C103.999993,18.0253103 104.020793,16.6460345 101.762838,17.822 M3.43084704,6.27027586 C6.25155789,7.78586207 45.309332,28.7591724 46.7630208,29.540069 C48.2178651,30.3209655 50.1014205,30.6975517 51.9999981,30.6975517 C53.8974201,30.6975517 55.7809755,30.3209655 57.2358198,29.540069 C58.6895085,28.7591724 97.7461271,7.78586207 100.567994,6.27027586 C103.38986,4.75584483 106.061504,0 100.875371,0 L3.12231374,0 C-2.05919689,0 0.608980637,4.75584483 3.43084704,6.27027586" id="Fill-1" fill="#FFFFFF" mask="url(#mask-36)"></path>
                            </g>
                            <g id="Page-1" transform="translate(0.000000, 137.000000)">
                                <mask id="mask-38" fill="white">
                                    <use xlink:href="#path-37"></use>
                                </mask>
                                <g id="Clip-2"></g>
                                <path d="M101.762838,17.822 C98.5584826,19.4935345 59.1979529,40.0694655 57.2358198,41.0917931 C55.2725311,42.116431 53.8974201,42.2492759 51.9999981,42.2492759 C50.1014205,42.2492759 48.727465,42.116431 46.7630208,41.0917931 C44.8008876,40.0694655 5.44266907,19.4935345 2.23600271,17.822 C-0.0196415265,16.6460345 2.91606532e-06,18.0253103 2.91606532e-06,19.0903793 L2.91606532e-06,61.4609483 C2.91606532e-06,63.8821897 3.22631373,67 5.73040238,67 L98.2695937,67 C100.773682,67 103.999993,63.8821897 103.999993,61.4609483 L103.999993,19.0903793 C103.999993,18.0253103 104.020793,16.6460345 101.762838,17.822 M3.43084704,6.27027586 C6.25155789,7.78586207 45.309332,28.7591724 46.7630208,29.540069 C48.2178651,30.3209655 50.1014205,30.6975517 51.9999981,30.6975517 C53.8974201,30.6975517 55.7809755,30.3209655 57.2358198,29.540069 C58.6895085,28.7591724 97.7461271,7.78586207 100.567994,6.27027586 C103.38986,4.75584483 106.061504,0 100.875371,0 L3.12231374,0 C-2.05919689,0 0.608980637,4.75584483 3.43084704,6.27027586" id="Fill-1" fill="#FFFFFF" mask="url(#mask-38)"></path>
                            </g>
                            <g id="Page-1-Copy-3" transform="translate(0.000000, 411.000000)">
                                <mask id="mask-40" fill="white">
                                    <use xlink:href="#path-39"></use>
                                </mask>
                                <g id="Clip-2"></g>
                                <path d="M101.762838,17.822 C98.5584826,19.4935345 59.1979529,40.0694655 57.2358198,41.0917931 C55.2725311,42.116431 53.8974201,42.2492759 51.9999981,42.2492759 C50.1014205,42.2492759 48.727465,42.116431 46.7630208,41.0917931 C44.8008876,40.0694655 5.44266907,19.4935345 2.23600271,17.822 C-0.0196415265,16.6460345 2.91606532e-06,18.0253103 2.91606532e-06,19.0903793 L2.91606532e-06,61.4609483 C2.91606532e-06,63.8821897 3.22631373,67 5.73040238,67 L98.2695937,67 C100.773682,67 103.999993,63.8821897 103.999993,61.4609483 L103.999993,19.0903793 C103.999993,18.0253103 104.020793,16.6460345 101.762838,17.822 M3.43084704,6.27027586 C6.25155789,7.78586207 45.309332,28.7591724 46.7630208,29.540069 C48.2178651,30.3209655 50.1014205,30.6975517 51.9999981,30.6975517 C53.8974201,30.6975517 55.7809755,30.3209655 57.2358198,29.540069 C58.6895085,28.7591724 97.7461271,7.78586207 100.567994,6.27027586 C103.38986,4.75584483 106.061504,0 100.875371,0 L3.12231374,0 C-2.05919689,0 0.608980637,4.75584483 3.43084704,6.27027586" id="Fill-1" fill="#FFFFFF" mask="url(#mask-40)"></path>
                            </g>
                        </g>
                        <g id="Group-5-Copy" transform="translate(174.000000, 0.000000)">
                            <g id="Page-1">
                                <mask id="mask-42" fill="white">
                                    <use xlink:href="#path-41"></use>
                                </mask>
                                <g id="Clip-2"></g>
                                <path d="M101.762838,17.822 C98.5584826,19.4935345 59.1979529,40.0694655 57.2358198,41.0917931 C55.2725311,42.116431 53.8974201,42.2492759 51.9999981,42.2492759 C50.1014205,42.2492759 48.727465,42.116431 46.7630208,41.0917931 C44.8008876,40.0694655 5.44266907,19.4935345 2.23600271,17.822 C-0.0196415265,16.6460345 2.91606532e-06,18.0253103 2.91606532e-06,19.0903793 L2.91606532e-06,61.4609483 C2.91606532e-06,63.8821897 3.22631373,67 5.73040238,67 L98.2695937,67 C100.773682,67 103.999993,63.8821897 103.999993,61.4609483 L103.999993,19.0903793 C103.999993,18.0253103 104.020793,16.6460345 101.762838,17.822 M3.43084704,6.27027586 C6.25155789,7.78586207 45.309332,28.7591724 46.7630208,29.540069 C48.2178651,30.3209655 50.1014205,30.6975517 51.9999981,30.6975517 C53.8974201,30.6975517 55.7809755,30.3209655 57.2358198,29.540069 C58.6895085,28.7591724 97.7461271,7.78586207 100.567994,6.27027586 C103.38986,4.75584483 106.061504,0 100.875371,0 L3.12231374,0 C-2.05919689,0 0.608980637,4.75584483 3.43084704,6.27027586" id="Fill-1" fill="#FFFFFF" mask="url(#mask-42)"></path>
                            </g>
                            <g id="Page-1-Copy-2" transform="translate(0.000000, 274.000000)">
                                <mask id="mask-44" fill="white">
                                    <use xlink:href="#path-43"></use>
                                </mask>
                                <g id="Clip-2"></g>
                                <path d="M101.762838,17.822 C98.5584826,19.4935345 59.1979529,40.0694655 57.2358198,41.0917931 C55.2725311,42.116431 53.8974201,42.2492759 51.9999981,42.2492759 C50.1014205,42.2492759 48.727465,42.116431 46.7630208,41.0917931 C44.8008876,40.0694655 5.44266907,19.4935345 2.23600271,17.822 C-0.0196415265,16.6460345 2.91606532e-06,18.0253103 2.91606532e-06,19.0903793 L2.91606532e-06,61.4609483 C2.91606532e-06,63.8821897 3.22631373,67 5.73040238,67 L98.2695937,67 C100.773682,67 103.999993,63.8821897 103.999993,61.4609483 L103.999993,19.0903793 C103.999993,18.0253103 104.020793,16.6460345 101.762838,17.822 M3.43084704,6.27027586 C6.25155789,7.78586207 45.309332,28.7591724 46.7630208,29.540069 C48.2178651,30.3209655 50.1014205,30.6975517 51.9999981,30.6975517 C53.8974201,30.6975517 55.7809755,30.3209655 57.2358198,29.540069 C58.6895085,28.7591724 97.7461271,7.78586207 100.567994,6.27027586 C103.38986,4.75584483 106.061504,0 100.875371,0 L3.12231374,0 C-2.05919689,0 0.608980637,4.75584483 3.43084704,6.27027586" id="Fill-1" fill="#FFFFFF" mask="url(#mask-44)"></path>
                            </g>
                            <g id="Page-1" transform="translate(0.000000, 137.000000)">
                                <mask id="mask-46" fill="white">
                                    <use xlink:href="#path-45"></use>
                                </mask>
                                <g id="Clip-2"></g>
                                <path d="M101.762838,17.822 C98.5584826,19.4935345 59.1979529,40.0694655 57.2358198,41.0917931 C55.2725311,42.116431 53.8974201,42.2492759 51.9999981,42.2492759 C50.1014205,42.2492759 48.727465,42.116431 46.7630208,41.0917931 C44.8008876,40.0694655 5.44266907,19.4935345 2.23600271,17.822 C-0.0196415265,16.6460345 2.91606532e-06,18.0253103 2.91606532e-06,19.0903793 L2.91606532e-06,61.4609483 C2.91606532e-06,63.8821897 3.22631373,67 5.73040238,67 L98.2695937,67 C100.773682,67 103.999993,63.8821897 103.999993,61.4609483 L103.999993,19.0903793 C103.999993,18.0253103 104.020793,16.6460345 101.762838,17.822 M3.43084704,6.27027586 C6.25155789,7.78586207 45.309332,28.7591724 46.7630208,29.540069 C48.2178651,30.3209655 50.1014205,30.6975517 51.9999981,30.6975517 C53.8974201,30.6975517 55.7809755,30.3209655 57.2358198,29.540069 C58.6895085,28.7591724 97.7461271,7.78586207 100.567994,6.27027586 C103.38986,4.75584483 106.061504,0 100.875371,0 L3.12231374,0 C-2.05919689,0 0.608980637,4.75584483 3.43084704,6.27027586" id="Fill-1" fill="#FFFFFF" mask="url(#mask-46)"></path>
                            </g>
                            <g id="Page-1-Copy-3" transform="translate(0.000000, 411.000000)">
                                <mask id="mask-48" fill="white">
                                    <use xlink:href="#path-47"></use>
                                </mask>
                                <g id="Clip-2"></g>
                                <path d="M101.762838,17.822 C98.5584826,19.4935345 59.1979529,40.0694655 57.2358198,41.0917931 C55.2725311,42.116431 53.8974201,42.2492759 51.9999981,42.2492759 C50.1014205,42.2492759 48.727465,42.116431 46.7630208,41.0917931 C44.8008876,40.0694655 5.44266907,19.4935345 2.23600271,17.822 C-0.0196415265,16.6460345 2.91606532e-06,18.0253103 2.91606532e-06,19.0903793 L2.91606532e-06,61.4609483 C2.91606532e-06,63.8821897 3.22631373,67 5.73040238,67 L98.2695937,67 C100.773682,67 103.999993,63.8821897 103.999993,61.4609483 L103.999993,19.0903793 C103.999993,18.0253103 104.020793,16.6460345 101.762838,17.822 M3.43084704,6.27027586 C6.25155789,7.78586207 45.309332,28.7591724 46.7630208,29.540069 C48.2178651,30.3209655 50.1014205,30.6975517 51.9999981,30.6975517 C53.8974201,30.6975517 55.7809755,30.3209655 57.2358198,29.540069 C58.6895085,28.7591724 97.7461271,7.78586207 100.567994,6.27027586 C103.38986,4.75584483 106.061504,0 100.875371,0 L3.12231374,0 C-2.05919689,0 0.608980637,4.75584483 3.43084704,6.27027586" id="Fill-1" fill="#FFFFFF" mask="url(#mask-48)"></path>
                            </g>
                        </g>
                        <g id="Group-5-Copy-6" transform="translate(870.000000, 0.000000)">
                            <g id="Page-1">
                                <mask id="mask-50" fill="white">
                                    <use xlink:href="#path-49"></use>
                                </mask>
                                <g id="Clip-2"></g>
                                <path d="M101.762838,17.822 C98.5584826,19.4935345 59.1979529,40.0694655 57.2358198,41.0917931 C55.2725311,42.116431 53.8974201,42.2492759 51.9999981,42.2492759 C50.1014205,42.2492759 48.727465,42.116431 46.7630208,41.0917931 C44.8008876,40.0694655 5.44266907,19.4935345 2.23600271,17.822 C-0.0196415265,16.6460345 2.91606532e-06,18.0253103 2.91606532e-06,19.0903793 L2.91606532e-06,61.4609483 C2.91606532e-06,63.8821897 3.22631373,67 5.73040238,67 L98.2695937,67 C100.773682,67 103.999993,63.8821897 103.999993,61.4609483 L103.999993,19.0903793 C103.999993,18.0253103 104.020793,16.6460345 101.762838,17.822 M3.43084704,6.27027586 C6.25155789,7.78586207 45.309332,28.7591724 46.7630208,29.540069 C48.2178651,30.3209655 50.1014205,30.6975517 51.9999981,30.6975517 C53.8974201,30.6975517 55.7809755,30.3209655 57.2358198,29.540069 C58.6895085,28.7591724 97.7461271,7.78586207 100.567994,6.27027586 C103.38986,4.75584483 106.061504,0 100.875371,0 L3.12231374,0 C-2.05919689,0 0.608980637,4.75584483 3.43084704,6.27027586" id="Fill-1" fill="#FFFFFF" mask="url(#mask-50)"></path>
                            </g>
                            <g id="Page-1-Copy-2" transform="translate(0.000000, 274.000000)">
                                <mask id="mask-52" fill="white">
                                    <use xlink:href="#path-51"></use>
                                </mask>
                                <g id="Clip-2"></g>
                                <path d="M101.762838,17.822 C98.5584826,19.4935345 59.1979529,40.0694655 57.2358198,41.0917931 C55.2725311,42.116431 53.8974201,42.2492759 51.9999981,42.2492759 C50.1014205,42.2492759 48.727465,42.116431 46.7630208,41.0917931 C44.8008876,40.0694655 5.44266907,19.4935345 2.23600271,17.822 C-0.0196415265,16.6460345 2.91606532e-06,18.0253103 2.91606532e-06,19.0903793 L2.91606532e-06,61.4609483 C2.91606532e-06,63.8821897 3.22631373,67 5.73040238,67 L98.2695937,67 C100.773682,67 103.999993,63.8821897 103.999993,61.4609483 L103.999993,19.0903793 C103.999993,18.0253103 104.020793,16.6460345 101.762838,17.822 M3.43084704,6.27027586 C6.25155789,7.78586207 45.309332,28.7591724 46.7630208,29.540069 C48.2178651,30.3209655 50.1014205,30.6975517 51.9999981,30.6975517 C53.8974201,30.6975517 55.7809755,30.3209655 57.2358198,29.540069 C58.6895085,28.7591724 97.7461271,7.78586207 100.567994,6.27027586 C103.38986,4.75584483 106.061504,0 100.875371,0 L3.12231374,0 C-2.05919689,0 0.608980637,4.75584483 3.43084704,6.27027586" id="Fill-1" fill="#FFFFFF" mask="url(#mask-52)"></path>
                            </g>
                            <g id="Page-1" transform="translate(0.000000, 137.000000)">
                                <mask id="mask-54" fill="white">
                                    <use xlink:href="#path-53"></use>
                                </mask>
                                <g id="Clip-2"></g>
                                <path d="M101.762838,17.822 C98.5584826,19.4935345 59.1979529,40.0694655 57.2358198,41.0917931 C55.2725311,42.116431 53.8974201,42.2492759 51.9999981,42.2492759 C50.1014205,42.2492759 48.727465,42.116431 46.7630208,41.0917931 C44.8008876,40.0694655 5.44266907,19.4935345 2.23600271,17.822 C-0.0196415265,16.6460345 2.91606532e-06,18.0253103 2.91606532e-06,19.0903793 L2.91606532e-06,61.4609483 C2.91606532e-06,63.8821897 3.22631373,67 5.73040238,67 L98.2695937,67 C100.773682,67 103.999993,63.8821897 103.999993,61.4609483 L103.999993,19.0903793 C103.999993,18.0253103 104.020793,16.6460345 101.762838,17.822 M3.43084704,6.27027586 C6.25155789,7.78586207 45.309332,28.7591724 46.7630208,29.540069 C48.2178651,30.3209655 50.1014205,30.6975517 51.9999981,30.6975517 C53.8974201,30.6975517 55.7809755,30.3209655 57.2358198,29.540069 C58.6895085,28.7591724 97.7461271,7.78586207 100.567994,6.27027586 C103.38986,4.75584483 106.061504,0 100.875371,0 L3.12231374,0 C-2.05919689,0 0.608980637,4.75584483 3.43084704,6.27027586" id="Fill-1" fill="#FFFFFF" mask="url(#mask-54)"></path>
                            </g>
                            <g id="Page-1-Copy-3" transform="translate(0.000000, 411.000000)">
                                <mask id="mask-56" fill="white">
                                    <use xlink:href="#path-55"></use>
                                </mask>
                                <g id="Clip-2"></g>
                                <path d="M101.762838,17.822 C98.5584826,19.4935345 59.1979529,40.0694655 57.2358198,41.0917931 C55.2725311,42.116431 53.8974201,42.2492759 51.9999981,42.2492759 C50.1014205,42.2492759 48.727465,42.116431 46.7630208,41.0917931 C44.8008876,40.0694655 5.44266907,19.4935345 2.23600271,17.822 C-0.0196415265,16.6460345 2.91606532e-06,18.0253103 2.91606532e-06,19.0903793 L2.91606532e-06,61.4609483 C2.91606532e-06,63.8821897 3.22631373,67 5.73040238,67 L98.2695937,67 C100.773682,67 103.999993,63.8821897 103.999993,61.4609483 L103.999993,19.0903793 C103.999993,18.0253103 104.020793,16.6460345 101.762838,17.822 M3.43084704,6.27027586 C6.25155789,7.78586207 45.309332,28.7591724 46.7630208,29.540069 C48.2178651,30.3209655 50.1014205,30.6975517 51.9999981,30.6975517 C53.8974201,30.6975517 55.7809755,30.3209655 57.2358198,29.540069 C58.6895085,28.7591724 97.7461271,7.78586207 100.567994,6.27027586 C103.38986,4.75584483 106.061504,0 100.875371,0 L3.12231374,0 C-2.05919689,0 0.608980637,4.75584483 3.43084704,6.27027586" id="Fill-1" fill="#FFFFFF" mask="url(#mask-56)"></path>
                            </g>
                        </g>
                        <g id="Group-5-Copy-3" transform="translate(522.000000, 0.000000)">
                            <g id="Page-1">
                                <mask id="mask-58" fill="white">
                                    <use xlink:href="#path-57"></use>
                                </mask>
                                <g id="Clip-2"></g>
                                <path d="M101.762838,17.822 C98.5584826,19.4935345 59.1979529,40.0694655 57.2358198,41.0917931 C55.2725311,42.116431 53.8974201,42.2492759 51.9999981,42.2492759 C50.1014205,42.2492759 48.727465,42.116431 46.7630208,41.0917931 C44.8008876,40.0694655 5.44266907,19.4935345 2.23600271,17.822 C-0.0196415265,16.6460345 2.91606532e-06,18.0253103 2.91606532e-06,19.0903793 L2.91606532e-06,61.4609483 C2.91606532e-06,63.8821897 3.22631373,67 5.73040238,67 L98.2695937,67 C100.773682,67 103.999993,63.8821897 103.999993,61.4609483 L103.999993,19.0903793 C103.999993,18.0253103 104.020793,16.6460345 101.762838,17.822 M3.43084704,6.27027586 C6.25155789,7.78586207 45.309332,28.7591724 46.7630208,29.540069 C48.2178651,30.3209655 50.1014205,30.6975517 51.9999981,30.6975517 C53.8974201,30.6975517 55.7809755,30.3209655 57.2358198,29.540069 C58.6895085,28.7591724 97.7461271,7.78586207 100.567994,6.27027586 C103.38986,4.75584483 106.061504,0 100.875371,0 L3.12231374,0 C-2.05919689,0 0.608980637,4.75584483 3.43084704,6.27027586" id="Fill-1" fill="#FFFFFF" mask="url(#mask-58)"></path>
                            </g>
                            <g id="Page-1-Copy-2" transform="translate(0.000000, 274.000000)">
                                <mask id="mask-60" fill="white">
                                    <use xlink:href="#path-59"></use>
                                </mask>
                                <g id="Clip-2"></g>
                                <path d="M101.762838,17.822 C98.5584826,19.4935345 59.1979529,40.0694655 57.2358198,41.0917931 C55.2725311,42.116431 53.8974201,42.2492759 51.9999981,42.2492759 C50.1014205,42.2492759 48.727465,42.116431 46.7630208,41.0917931 C44.8008876,40.0694655 5.44266907,19.4935345 2.23600271,17.822 C-0.0196415265,16.6460345 2.91606532e-06,18.0253103 2.91606532e-06,19.0903793 L2.91606532e-06,61.4609483 C2.91606532e-06,63.8821897 3.22631373,67 5.73040238,67 L98.2695937,67 C100.773682,67 103.999993,63.8821897 103.999993,61.4609483 L103.999993,19.0903793 C103.999993,18.0253103 104.020793,16.6460345 101.762838,17.822 M3.43084704,6.27027586 C6.25155789,7.78586207 45.309332,28.7591724 46.7630208,29.540069 C48.2178651,30.3209655 50.1014205,30.6975517 51.9999981,30.6975517 C53.8974201,30.6975517 55.7809755,30.3209655 57.2358198,29.540069 C58.6895085,28.7591724 97.7461271,7.78586207 100.567994,6.27027586 C103.38986,4.75584483 106.061504,0 100.875371,0 L3.12231374,0 C-2.05919689,0 0.608980637,4.75584483 3.43084704,6.27027586" id="Fill-1" fill="#FFFFFF" mask="url(#mask-60)"></path>
                            </g>
                            <g id="Page-1" transform="translate(0.000000, 137.000000)">
                                <mask id="mask-62" fill="white">
                                    <use xlink:href="#path-61"></use>
                                </mask>
                                <g id="Clip-2"></g>
                                <path d="M101.762838,17.822 C98.5584826,19.4935345 59.1979529,40.0694655 57.2358198,41.0917931 C55.2725311,42.116431 53.8974201,42.2492759 51.9999981,42.2492759 C50.1014205,42.2492759 48.727465,42.116431 46.7630208,41.0917931 C44.8008876,40.0694655 5.44266907,19.4935345 2.23600271,17.822 C-0.0196415265,16.6460345 2.91606532e-06,18.0253103 2.91606532e-06,19.0903793 L2.91606532e-06,61.4609483 C2.91606532e-06,63.8821897 3.22631373,67 5.73040238,67 L98.2695937,67 C100.773682,67 103.999993,63.8821897 103.999993,61.4609483 L103.999993,19.0903793 C103.999993,18.0253103 104.020793,16.6460345 101.762838,17.822 M3.43084704,6.27027586 C6.25155789,7.78586207 45.309332,28.7591724 46.7630208,29.540069 C48.2178651,30.3209655 50.1014205,30.6975517 51.9999981,30.6975517 C53.8974201,30.6975517 55.7809755,30.3209655 57.2358198,29.540069 C58.6895085,28.7591724 97.7461271,7.78586207 100.567994,6.27027586 C103.38986,4.75584483 106.061504,0 100.875371,0 L3.12231374,0 C-2.05919689,0 0.608980637,4.75584483 3.43084704,6.27027586" id="Fill-1" fill="#FFFFFF" mask="url(#mask-62)"></path>
                            </g>
                            <g id="Page-1-Copy-3" transform="translate(0.000000, 411.000000)">
                                <mask id="mask-64" fill="white">
                                    <use xlink:href="#path-63"></use>
                                </mask>
                                <g id="Clip-2"></g>
                                <path d="M101.762838,17.822 C98.5584826,19.4935345 59.1979529,40.0694655 57.2358198,41.0917931 C55.2725311,42.116431 53.8974201,42.2492759 51.9999981,42.2492759 C50.1014205,42.2492759 48.727465,42.116431 46.7630208,41.0917931 C44.8008876,40.0694655 5.44266907,19.4935345 2.23600271,17.822 C-0.0196415265,16.6460345 2.91606532e-06,18.0253103 2.91606532e-06,19.0903793 L2.91606532e-06,61.4609483 C2.91606532e-06,63.8821897 3.22631373,67 5.73040238,67 L98.2695937,67 C100.773682,67 103.999993,63.8821897 103.999993,61.4609483 L103.999993,19.0903793 C103.999993,18.0253103 104.020793,16.6460345 101.762838,17.822 M3.43084704,6.27027586 C6.25155789,7.78586207 45.309332,28.7591724 46.7630208,29.540069 C48.2178651,30.3209655 50.1014205,30.6975517 51.9999981,30.6975517 C53.8974201,30.6975517 55.7809755,30.3209655 57.2358198,29.540069 C58.6895085,28.7591724 97.7461271,7.78586207 100.567994,6.27027586 C103.38986,4.75584483 106.061504,0 100.875371,0 L3.12231374,0 C-2.05919689,0 0.608980637,4.75584483 3.43084704,6.27027586" id="Fill-1" fill="#FFFFFF" mask="url(#mask-64)"></path>
                            </g>
                        </g>
                        <g id="Group-5-Copy-7" transform="translate(1218.000000, 0.000000)">
                            <g id="Page-1">
                                <mask id="mask-66" fill="white">
                                    <use xlink:href="#path-65"></use>
                                </mask>
                                <g id="Clip-2"></g>
                                <path d="M101.762838,17.822 C98.5584826,19.4935345 59.1979529,40.0694655 57.2358198,41.0917931 C55.2725311,42.116431 53.8974201,42.2492759 51.9999981,42.2492759 C50.1014205,42.2492759 48.727465,42.116431 46.7630208,41.0917931 C44.8008876,40.0694655 5.44266907,19.4935345 2.23600271,17.822 C-0.0196415265,16.6460345 2.91606532e-06,18.0253103 2.91606532e-06,19.0903793 L2.91606532e-06,61.4609483 C2.91606532e-06,63.8821897 3.22631373,67 5.73040238,67 L98.2695937,67 C100.773682,67 103.999993,63.8821897 103.999993,61.4609483 L103.999993,19.0903793 C103.999993,18.0253103 104.020793,16.6460345 101.762838,17.822 M3.43084704,6.27027586 C6.25155789,7.78586207 45.309332,28.7591724 46.7630208,29.540069 C48.2178651,30.3209655 50.1014205,30.6975517 51.9999981,30.6975517 C53.8974201,30.6975517 55.7809755,30.3209655 57.2358198,29.540069 C58.6895085,28.7591724 97.7461271,7.78586207 100.567994,6.27027586 C103.38986,4.75584483 106.061504,0 100.875371,0 L3.12231374,0 C-2.05919689,0 0.608980637,4.75584483 3.43084704,6.27027586" id="Fill-1" fill="#FFFFFF" mask="url(#mask-66)"></path>
                            </g>
                            <g id="Page-1-Copy-2" transform="translate(0.000000, 274.000000)">
                                <mask id="mask-68" fill="white">
                                    <use xlink:href="#path-67"></use>
                                </mask>
                                <g id="Clip-2"></g>
                                <path d="M101.762838,17.822 C98.5584826,19.4935345 59.1979529,40.0694655 57.2358198,41.0917931 C55.2725311,42.116431 53.8974201,42.2492759 51.9999981,42.2492759 C50.1014205,42.2492759 48.727465,42.116431 46.7630208,41.0917931 C44.8008876,40.0694655 5.44266907,19.4935345 2.23600271,17.822 C-0.0196415265,16.6460345 2.91606532e-06,18.0253103 2.91606532e-06,19.0903793 L2.91606532e-06,61.4609483 C2.91606532e-06,63.8821897 3.22631373,67 5.73040238,67 L98.2695937,67 C100.773682,67 103.999993,63.8821897 103.999993,61.4609483 L103.999993,19.0903793 C103.999993,18.0253103 104.020793,16.6460345 101.762838,17.822 M3.43084704,6.27027586 C6.25155789,7.78586207 45.309332,28.7591724 46.7630208,29.540069 C48.2178651,30.3209655 50.1014205,30.6975517 51.9999981,30.6975517 C53.8974201,30.6975517 55.7809755,30.3209655 57.2358198,29.540069 C58.6895085,28.7591724 97.7461271,7.78586207 100.567994,6.27027586 C103.38986,4.75584483 106.061504,0 100.875371,0 L3.12231374,0 C-2.05919689,0 0.608980637,4.75584483 3.43084704,6.27027586" id="Fill-1" fill="#FFFFFF" mask="url(#mask-68)"></path>
                            </g>
                            <g id="Page-1" transform="translate(0.000000, 137.000000)">
                                <mask id="mask-70" fill="white">
                                    <use xlink:href="#path-69"></use>
                                </mask>
                                <g id="Clip-2"></g>
                                <path d="M101.762838,17.822 C98.5584826,19.4935345 59.1979529,40.0694655 57.2358198,41.0917931 C55.2725311,42.116431 53.8974201,42.2492759 51.9999981,42.2492759 C50.1014205,42.2492759 48.727465,42.116431 46.7630208,41.0917931 C44.8008876,40.0694655 5.44266907,19.4935345 2.23600271,17.822 C-0.0196415265,16.6460345 2.91606532e-06,18.0253103 2.91606532e-06,19.0903793 L2.91606532e-06,61.4609483 C2.91606532e-06,63.8821897 3.22631373,67 5.73040238,67 L98.2695937,67 C100.773682,67 103.999993,63.8821897 103.999993,61.4609483 L103.999993,19.0903793 C103.999993,18.0253103 104.020793,16.6460345 101.762838,17.822 M3.43084704,6.27027586 C6.25155789,7.78586207 45.309332,28.7591724 46.7630208,29.540069 C48.2178651,30.3209655 50.1014205,30.6975517 51.9999981,30.6975517 C53.8974201,30.6975517 55.7809755,30.3209655 57.2358198,29.540069 C58.6895085,28.7591724 97.7461271,7.78586207 100.567994,6.27027586 C103.38986,4.75584483 106.061504,0 100.875371,0 L3.12231374,0 C-2.05919689,0 0.608980637,4.75584483 3.43084704,6.27027586" id="Fill-1" fill="#FFFFFF" mask="url(#mask-70)"></path>
                            </g>
                            <g id="Page-1-Copy-3" transform="translate(0.000000, 411.000000)">
                                <mask id="mask-72" fill="white">
                                    <use xlink:href="#path-71"></use>
                                </mask>
                                <g id="Clip-2"></g>
                                <path d="M101.762838,17.822 C98.5584826,19.4935345 59.1979529,40.0694655 57.2358198,41.0917931 C55.2725311,42.116431 53.8974201,42.2492759 51.9999981,42.2492759 C50.1014205,42.2492759 48.727465,42.116431 46.7630208,41.0917931 C44.8008876,40.0694655 5.44266907,19.4935345 2.23600271,17.822 C-0.0196415265,16.6460345 2.91606532e-06,18.0253103 2.91606532e-06,19.0903793 L2.91606532e-06,61.4609483 C2.91606532e-06,63.8821897 3.22631373,67 5.73040238,67 L98.2695937,67 C100.773682,67 103.999993,63.8821897 103.999993,61.4609483 L103.999993,19.0903793 C103.999993,18.0253103 104.020793,16.6460345 101.762838,17.822 M3.43084704,6.27027586 C6.25155789,7.78586207 45.309332,28.7591724 46.7630208,29.540069 C48.2178651,30.3209655 50.1014205,30.6975517 51.9999981,30.6975517 C53.8974201,30.6975517 55.7809755,30.3209655 57.2358198,29.540069 C58.6895085,28.7591724 97.7461271,7.78586207 100.567994,6.27027586 C103.38986,4.75584483 106.061504,0 100.875371,0 L3.12231374,0 C-2.05919689,0 0.608980637,4.75584483 3.43084704,6.27027586" id="Fill-1" fill="#FFFFFF" mask="url(#mask-72)"></path>
                            </g>
                        </g>
                    </g>
                </g>
            </g>
        </g>
    </g>
</svg>