<?xml version="1.0" encoding="UTF-8"?>
<svg width="1420px" height="478px" viewBox="0 0 1420 478" version="1.1" xmlns="http://www.w3.org/2000/svg" xmlns:xlink="http://www.w3.org/1999/xlink">
    <!-- Generator: Sketch 49 (51002) - http://www.bohemiancoding.com/sketch -->
    <title>Work</title>
    <desc>Created with Sketch.</desc>
    <defs></defs>
    <g id="Page-1" stroke="none" stroke-width="1" fill="none" fill-rule="evenodd" opacity="0.0800000057">
        <g id="background--work">
            <g id="Work">
                <g id="Work-v1.0">
                    <g id="Hero">
                        <g id="Group-4">
                            <g id="Group">
                                <g id="white" transform="translate(146.000000, 0.000000)">
                                    <g id="base">
                                        <g id="path-1-link" fill="#000000" fill-rule="nonzero">
                                            <rect id="path-1" x="0" y="0" width="106" height="219" rx="7"></rect>
                                        </g>
                                        <g id="path-1-link" fill="#FFFFFF">
                                            <rect id="path-1" x="0" y="0" width="106" height="219" rx="7"></rect>
                                        </g>
                                        <g id="path-1-link" fill="#000000" fill-rule="nonzero">
                                            <rect id="path-1" x="0" y="0" width="106" height="219" rx="7"></rect>
                                        </g>
                                    </g>
                                    <g id="mask" transform="translate(5.000000, 5.000000)" fill="#EBEBEB" fill-rule="nonzero">
                                        <rect id="path-4" x="0" y="0" width="97" height="210" rx="7"></rect>
                                    </g>
                                    <path d="M28,5 L80,5 C80,8.86599325 76.8659932,12 73,12 L35,12 C31.1340068,12 28,8.86599325 28,5 Z" id="bar" fill="#FFFFFF" fill-rule="nonzero"></path>
                                </g>
                                <g id="white-copy-3" transform="translate(438.000000, 0.000000)">
                                    <g id="base">
                                        <g id="path-6-link" fill="#000000" fill-rule="nonzero">
                                            <rect id="path-6" x="0" y="0" width="106" height="219" rx="7"></rect>
                                        </g>
                                        <g id="path-6-link" fill="#FFFFFF">
                                            <rect id="path-6" x="0" y="0" width="106" height="219" rx="7"></rect>
                                        </g>
                                        <g id="path-6-link" fill="#000000" fill-rule="nonzero">
                                            <rect id="path-6" x="0" y="0" width="106" height="219" rx="7"></rect>
                                        </g>
                                    </g>
                                    <g id="mask" transform="translate(5.000000, 5.000000)" fill="#EBEBEB" fill-rule="nonzero">
                                        <rect id="path-9" x="0" y="0" width="97" height="210" rx="7"></rect>
                                    </g>
                                    <path d="M28,5 L80,5 C80,8.86599325 76.8659932,12 73,12 L35,12 C31.1340068,12 28,8.86599325 28,5 Z" id="bar" fill="#FFFFFF" fill-rule="nonzero"></path>
                                </g>
                                <g id="white-copy-5" transform="translate(730.000000, 0.000000)">
                                    <g id="base">
                                        <g id="path-11-link" fill="#000000" fill-rule="nonzero">
                                            <rect id="path-11" x="0" y="0" width="106" height="219" rx="7"></rect>
                                        </g>
                                        <g id="path-11-link" fill="#FFFFFF">
                                            <rect id="path-11" x="0" y="0" width="106" height="219" rx="7"></rect>
                                        </g>
                                        <g id="path-11-link" fill="#000000" fill-rule="nonzero">
                                            <rect id="path-11" x="0" y="0" width="106" height="219" rx="7"></rect>
                                        </g>
                                    </g>
                                    <g id="mask" transform="translate(5.000000, 5.000000)" fill="#EBEBEB" fill-rule="nonzero">
                                        <rect id="path-14" x="0" y="0" width="97" height="210" rx="7"></rect>
                                    </g>
                                    <path d="M28,5 L80,5 C80,8.86599325 76.8659932,12 73,12 L35,12 C31.1340068,12 28,8.86599325 28,5 Z" id="bar" fill="#FFFFFF" fill-rule="nonzero"></path>
                                </g>
                                <g id="white-copy-8" transform="translate(1022.000000, 0.000000)">
                                    <g id="base">
                                        <g id="path-16-link" fill="#000000" fill-rule="nonzero">
                                            <rect id="path-16" x="0" y="0" width="106" height="219" rx="7"></rect>
                                        </g>
                                        <g id="path-16-link" fill="#FFFFFF">
                                            <rect id="path-16" x="0" y="0" width="106" height="219" rx="7"></rect>
                                        </g>
                                        <g id="path-16-link" fill="#000000" fill-rule="nonzero">
                                            <rect id="path-16" x="0" y="0" width="106" height="219" rx="7"></rect>
                                        </g>
                                    </g>
                                    <g id="mask" transform="translate(5.000000, 5.000000)" fill="#EBEBEB" fill-rule="nonzero">
                                        <rect id="path-19" x="0" y="0" width="97" height="210" rx="7"></rect>
                                    </g>
                                    <path d="M28,5 L80,5 C80,8.86599325 76.8659932,12 73,12 L35,12 C31.1340068,12 28,8.86599325 28,5 Z" id="bar" fill="#FFFFFF" fill-rule="nonzero"></path>
                                </g>
                                <g id="white-copy-11" transform="translate(1314.000000, 0.000000)">
                                    <g id="base">
                                        <g id="path-21-link" fill="#000000" fill-rule="nonzero">
                                            <rect id="path-21" x="0" y="0" width="106" height="219" rx="7"></rect>
                                        </g>
                                        <g id="path-21-link" fill="#FFFFFF">
                                            <rect id="path-21" x="0" y="0" width="106" height="219" rx="7"></rect>
                                        </g>
                                        <g id="path-21-link" fill="#000000" fill-rule="nonzero">
                                            <rect id="path-21" x="0" y="0" width="106" height="219" rx="7"></rect>
                                        </g>
                                    </g>
                                    <g id="mask" transform="translate(5.000000, 5.000000)" fill="#EBEBEB" fill-rule="nonzero">
                                        <rect id="path-24" x="0" y="0" width="97" height="210" rx="7"></rect>
                                    </g>
                                    <path d="M28,5 L80,5 C80,8.86599325 76.8659932,12 73,12 L35,12 C31.1340068,12 28,8.86599325 28,5 Z" id="bar" fill="#FFFFFF" fill-rule="nonzero"></path>
                                </g>
                                <g id="white-copy-2" transform="translate(146.000000, 259.000000)">
                                    <g id="base">
                                        <g id="path-26-link" fill="#000000" fill-rule="nonzero">
                                            <rect id="path-26" x="0" y="0" width="106" height="219" rx="7"></rect>
                                        </g>
                                        <g id="path-26-link" fill="#FFFFFF">
                                            <rect id="path-26" x="0" y="0" width="106" height="219" rx="7"></rect>
                                        </g>
                                        <g id="path-26-link" fill="#000000" fill-rule="nonzero">
                                            <rect id="path-26" x="0" y="0" width="106" height="219" rx="7"></rect>
                                        </g>
                                    </g>
                                    <g id="mask" transform="translate(5.000000, 5.000000)" fill="#EBEBEB" fill-rule="nonzero">
                                        <rect id="path-29" x="0" y="0" width="97" height="210" rx="7"></rect>
                                    </g>
                                    <path d="M28,5 L80,5 C80,8.86599325 76.8659932,12 73,12 L35,12 C31.1340068,12 28,8.86599325 28,5 Z" id="bar" fill="#FFFFFF" fill-rule="nonzero"></path>
                                </g>
                                <g id="white-copy-4" transform="translate(438.000000, 259.000000)">
                                    <g id="base">
                                        <g id="path-31-link" fill="#000000" fill-rule="nonzero">
                                            <rect id="path-31" x="0" y="0" width="106" height="219" rx="7"></rect>
                                        </g>
                                        <g id="path-31-link" fill="#FFFFFF">
                                            <rect id="path-31" x="0" y="0" width="106" height="219" rx="7"></rect>
                                        </g>
                                        <g id="path-31-link" fill="#000000" fill-rule="nonzero">
                                            <rect id="path-31" x="0" y="0" width="106" height="219" rx="7"></rect>
                                        </g>
                                    </g>
                                    <g id="mask" transform="translate(5.000000, 5.000000)" fill="#EBEBEB" fill-rule="nonzero">
                                        <rect id="path-34" x="0" y="0" width="97" height="210" rx="7"></rect>
                                    </g>
                                    <path d="M28,5 L80,5 C80,8.86599325 76.8659932,12 73,12 L35,12 C31.1340068,12 28,8.86599325 28,5 Z" id="bar" fill="#FFFFFF" fill-rule="nonzero"></path>
                                </g>
                                <g id="white-copy-6" transform="translate(730.000000, 259.000000)">
                                    <g id="base">
                                        <g id="path-36-link" fill="#000000" fill-rule="nonzero">
                                            <rect id="path-36" x="0" y="0" width="106" height="219" rx="7"></rect>
                                        </g>
                                        <g id="path-36-link" fill="#FFFFFF">
                                            <rect id="path-36" x="0" y="0" width="106" height="219" rx="7"></rect>
                                        </g>
                                        <g id="path-36-link" fill="#000000" fill-rule="nonzero">
                                            <rect id="path-36" x="0" y="0" width="106" height="219" rx="7"></rect>
                                        </g>
                                    </g>
                                    <g id="mask" transform="translate(5.000000, 5.000000)" fill="#EBEBEB" fill-rule="nonzero">
                                        <rect id="path-39" x="0" y="0" width="97" height="210" rx="7"></rect>
                                    </g>
                                    <path d="M28,5 L80,5 C80,8.86599325 76.8659932,12 73,12 L35,12 C31.1340068,12 28,8.86599325 28,5 Z" id="bar" fill="#FFFFFF" fill-rule="nonzero"></path>
                                </g>
                                <g id="white-copy-9" transform="translate(1022.000000, 259.000000)">
                                    <g id="base">
                                        <g id="path-41-link" fill="#000000" fill-rule="nonzero">
                                            <rect id="path-41" x="0" y="0" width="106" height="219" rx="7"></rect>
                                        </g>
                                        <g id="path-41-link" fill="#FFFFFF">
                                            <rect id="path-41" x="0" y="0" width="106" height="219" rx="7"></rect>
                                        </g>
                                        <g id="path-41-link" fill="#000000" fill-rule="nonzero">
                                            <rect id="path-41" x="0" y="0" width="106" height="219" rx="7"></rect>
                                        </g>
                                    </g>
                                    <g id="mask" transform="translate(5.000000, 5.000000)" fill="#EBEBEB" fill-rule="nonzero">
                                        <rect id="path-44" x="0" y="0" width="97" height="210" rx="7"></rect>
                                    </g>
                                    <path d="M28,5 L80,5 C80,8.86599325 76.8659932,12 73,12 L35,12 C31.1340068,12 28,8.86599325 28,5 Z" id="bar" fill="#FFFFFF" fill-rule="nonzero"></path>
                                </g>
                                <g id="white-copy-12" transform="translate(1314.000000, 259.000000)">
                                    <g id="base">
                                        <g id="path-46-link" fill="#000000" fill-rule="nonzero">
                                            <rect id="path-46" x="0" y="0" width="106" height="219" rx="7"></rect>
                                        </g>
                                        <g id="path-46-link" fill="#FFFFFF">
                                            <rect id="path-46" x="0" y="0" width="106" height="219" rx="7"></rect>
                                        </g>
                                        <g id="path-46-link" fill="#000000" fill-rule="nonzero">
                                            <rect id="path-46" x="0" y="0" width="106" height="219" rx="7"></rect>
                                        </g>
                                    </g>
                                    <g id="mask" transform="translate(5.000000, 5.000000)" fill="#EBEBEB" fill-rule="nonzero">
                                        <rect id="path-49" x="0" y="0" width="97" height="210" rx="7"></rect>
                                    </g>
                                    <path d="M28,5 L80,5 C80,8.86599325 76.8659932,12 73,12 L35,12 C31.1340068,12 28,8.86599325 28,5 Z" id="bar" fill="#FFFFFF" fill-rule="nonzero"></path>
                                </g>
                                <g id="white-copy" transform="translate(292.000000, 110.000000)">
                                    <g id="base">
                                        <g id="path-51-link" fill="#000000" fill-rule="nonzero">
                                            <rect id="path-51" x="0" y="0" width="106" height="219" rx="7"></rect>
                                        </g>
                                        <g id="path-51-link" fill="#FFFFFF">
                                            <rect id="path-51" x="0" y="0" width="106" height="219" rx="7"></rect>
                                        </g>
                                        <g id="path-51-link" fill="#000000" fill-rule="nonzero">
                                            <rect id="path-51" x="0" y="0" width="106" height="219" rx="7"></rect>
                                        </g>
                                    </g>
                                    <g id="mask" transform="translate(5.000000, 5.000000)" fill="#EBEBEB" fill-rule="nonzero">
                                        <rect id="path-54" x="0" y="0" width="97" height="210" rx="7"></rect>
                                    </g>
                                    <path d="M28,5 L80,5 C80,8.86599325 76.8659932,12 73,12 L35,12 C31.1340068,12 28,8.86599325 28,5 Z" id="bar" fill="#FFFFFF" fill-rule="nonzero"></path>
                                </g>
                                <g id="white-copy-17" transform="translate(0.000000, 110.000000)">
                                    <g id="base">
                                        <g id="path-56-link" fill="#000000" fill-rule="nonzero">
                                            <rect id="path-56" x="0" y="0" width="106" height="219" rx="7"></rect>
                                        </g>
                                        <g id="path-56-link" fill="#FFFFFF">
                                            <rect id="path-56" x="0" y="0" width="106" height="219" rx="7"></rect>
                                        </g>
                                        <g id="path-56-link" fill="#000000" fill-rule="nonzero">
                                            <rect id="path-56" x="0" y="0" width="106" height="219" rx="7"></rect>
                                        </g>
                                    </g>
                                    <g id="mask" transform="translate(5.000000, 5.000000)" fill="#EBEBEB" fill-rule="nonzero">
                                        <rect id="path-59" x="0" y="0" width="97" height="210" rx="7"></rect>
                                    </g>
                                    <path d="M28,5 L80,5 C80,8.86599325 76.8659932,12 73,12 L35,12 C31.1340068,12 28,8.86599325 28,5 Z" id="bar" fill="#FFFFFF" fill-rule="nonzero"></path>
                                </g>
                                <g id="white-copy-7" transform="translate(584.000000, 110.000000)">
                                    <g id="base">
                                        <g id="path-61-link" fill="#000000" fill-rule="nonzero">
                                            <rect id="path-61" x="0" y="0" width="106" height="219" rx="7"></rect>
                                        </g>
                                        <g id="path-61-link" fill="#FFFFFF">
                                            <rect id="path-61" x="0" y="0" width="106" height="219" rx="7"></rect>
                                        </g>
                                        <g id="path-61-link" fill="#000000" fill-rule="nonzero">
                                            <rect id="path-61" x="0" y="0" width="106" height="219" rx="7"></rect>
                                        </g>
                                    </g>
                                    <g id="mask" transform="translate(5.000000, 5.000000)" fill="#EBEBEB" fill-rule="nonzero">
                                        <rect id="path-64" x="0" y="0" width="97" height="210" rx="7"></rect>
                                    </g>
                                    <path d="M28,5 L80,5 C80,8.86599325 76.8659932,12 73,12 L35,12 C31.1340068,12 28,8.86599325 28,5 Z" id="bar" fill="#FFFFFF" fill-rule="nonzero"></path>
                                </g>
                                <g id="white-copy-10" transform="translate(876.000000, 110.000000)">
                                    <g id="base">
                                        <g id="path-66-link" fill="#000000" fill-rule="nonzero">
                                            <rect id="path-66" x="0" y="0" width="106" height="219" rx="7"></rect>
                                        </g>
                                        <g id="path-66-link" fill="#FFFFFF">
                                            <rect id="path-66" x="0" y="0" width="106" height="219" rx="7"></rect>
                                        </g>
                                        <g id="path-66-link" fill="#000000" fill-rule="nonzero">
                                            <rect id="path-66" x="0" y="0" width="106" height="219" rx="7"></rect>
                                        </g>
                                    </g>
                                    <g id="mask" transform="translate(5.000000, 5.000000)" fill="#EBEBEB" fill-rule="nonzero">
                                        <rect id="path-69" x="0" y="0" width="97" height="210" rx="7"></rect>
                                    </g>
                                    <path d="M28,5 L80,5 C80,8.86599325 76.8659932,12 73,12 L35,12 C31.1340068,12 28,8.86599325 28,5 Z" id="bar" fill="#FFFFFF" fill-rule="nonzero"></path>
                                </g>
                                <g id="white-copy-13" transform="translate(1168.000000, 110.000000)">
                                    <g id="base">
                                        <g id="path-71-link" fill="#000000" fill-rule="nonzero">
                                            <rect id="path-71" x="0" y="0" width="106" height="219" rx="7"></rect>
                                        </g>
                                        <g id="path-71-link" fill="#FFFFFF">
                                            <rect id="path-71" x="0" y="0" width="106" height="219" rx="7"></rect>
                                        </g>
                                        <g id="path-71-link" fill="#000000" fill-rule="nonzero">
                                            <rect id="path-71" x="0" y="0" width="106" height="219" rx="7"></rect>
                                        </g>
                                    </g>
                                    <g id="mask" transform="translate(5.000000, 5.000000)" fill="#EBEBEB" fill-rule="nonzero">
                                        <rect id="path-74" x="0" y="0" width="97" height="210" rx="7"></rect>
                                    </g>
                                    <path d="M28,5 L80,5 C80,8.86599325 76.8659932,12 73,12 L35,12 C31.1340068,12 28,8.86599325 28,5 Z" id="bar" fill="#FFFFFF" fill-rule="nonzero"></path>
                                </g>
                            </g>
                        </g>
                    </g>
                </g>
            </g>
        </g>
    </g>
</svg>