<?xml version="1.0" encoding="UTF-8"?>
<svg width="283px" height="570px" viewBox="0 0 283 570" version="1.1" xmlns="http://www.w3.org/2000/svg" xmlns:xlink="http://www.w3.org/1999/xlink">
    <!-- Generator: Sketch 49 (51002) - http://www.bohemiancoding.com/sketch -->
    <title>iPhone 6</title>
    <desc>Created with Sketch.</desc>
    <defs>
        <linearGradient x1="-10.9786987%" y1="15.7965903%" x2="82.0612981%" y2="66.2833659%" id="linearGradient-1">
            <stop stop-color="#33383E" offset="0%"></stop>
            <stop stop-color="#000000" stop-opacity="0" offset="100%"></stop>
        </linearGradient>
        <path d="M44.6581197,0 L230.34188,0 C255.005879,-4.51381585e-15 275,19.9195977 275,44.4916667 L275,517.508333 C275,542.080402 255.005879,562 230.34188,562 L44.6581197,562 C19.9941212,562 3.13139827e-15,542.080402 0,517.508333 L0,44.4916667 C-3.13139827e-15,19.9195977 19.9941212,4.51381585e-15 44.6581197,0 Z" id="path-2"></path>
        <filter x="-2.2%" y="-0.9%" width="105.1%" height="102.5%" filterUnits="objectBoundingBox" id="filter-3">
            <feOffset dx="1" dy="2" in="SourceAlpha" result="shadowOffsetOuter1"></feOffset>
            <feGaussianBlur stdDeviation="2" in="shadowOffsetOuter1" result="shadowBlurOuter1"></feGaussianBlur>
            <feColorMatrix values="0 0 0 0 0   0 0 0 0 0   0 0 0 0 0  0 0 0 0.5 0" type="matrix" in="shadowBlurOuter1"></feColorMatrix>
        </filter>
        <filter x="-2.0%" y="-0.8%" width="104.7%" height="102.3%" filterUnits="objectBoundingBox" id="filter-4">
            <feGaussianBlur stdDeviation="0.5" in="SourceAlpha" result="shadowBlurInner1"></feGaussianBlur>
            <feOffset dx="0" dy="4" in="shadowBlurInner1" result="shadowOffsetInner1"></feOffset>
            <feComposite in="shadowOffsetInner1" in2="SourceAlpha" operator="arithmetic" k2="-1" k3="1" result="shadowInnerInner1"></feComposite>
            <feColorMatrix values="0 0 0 0 1   0 0 0 0 1   0 0 0 0 1  0 0 0 0.115290987 0" type="matrix" in="shadowInnerInner1"></feColorMatrix>
        </filter>
        <linearGradient x1="50%" y1="0%" x2="50%" y2="100%" id="linearGradient-5">
            <stop stop-color="#5D636B" offset="0%"></stop>
            <stop stop-color="#43484F" offset="100%"></stop>
        </linearGradient>
        <linearGradient x1="50%" y1="0%" x2="100%" y2="0%" id="linearGradient-6">
            <stop stop-color="#5C6269" offset="0%"></stop>
            <stop stop-color="#767D86" offset="100%"></stop>
        </linearGradient>
        <linearGradient x1="50%" y1="0%" x2="100%" y2="0%" id="linearGradient-7">
            <stop stop-color="#54585D" offset="0%"></stop>
            <stop stop-color="#767D86" offset="100%"></stop>
        </linearGradient>
        <circle id="path-8" cx="141.5" cy="525.5" r="21.5"></circle>
        <filter x="-4.7%" y="-4.7%" width="109.3%" height="109.3%" filterUnits="objectBoundingBox" id="filter-9">
            <feGaussianBlur stdDeviation="1.5" in="SourceAlpha" result="shadowBlurInner1"></feGaussianBlur>
            <feOffset dx="0" dy="1" in="shadowBlurInner1" result="shadowOffsetInner1"></feOffset>
            <feComposite in="shadowOffsetInner1" in2="SourceAlpha" operator="arithmetic" k2="-1" k3="1" result="shadowInnerInner1"></feComposite>
            <feColorMatrix values="0 0 0 0 0   0 0 0 0 0   0 0 0 0 0  0 0 0 0.5 0" type="matrix" in="shadowInnerInner1"></feColorMatrix>
        </filter>
        <linearGradient x1="50%" y1="0%" x2="65.9629181%" y2="97.8495695%" id="linearGradient-10">
            <stop stop-color="#24292F" offset="0%"></stop>
            <stop stop-color="#85909F" offset="100%"></stop>
        </linearGradient>
        <linearGradient x1="50%" y1="0%" x2="50%" y2="98.2680963%" id="linearGradient-11">
            <stop stop-color="#000000" offset="0%"></stop>
            <stop stop-color="#333232" offset="100%"></stop>
        </linearGradient>
        <rect id="path-12" x="115" y="33" width="48" height="7" rx="3.5"></rect>
        <linearGradient x1="50%" y1="0%" x2="50%" y2="99.0334024%" id="linearGradient-13">
            <stop stop-color="#000000" offset="0%"></stop>
            <stop stop-color="#585656" offset="100%"></stop>
        </linearGradient>
        <rect id="path-14" x="96" y="31" width="9" height="9" rx="4.5"></rect>
        <linearGradient x1="50%" y1="0%" x2="100%" y2="0%" id="linearGradient-15">
            <stop stop-color="#798089" offset="0%"></stop>
            <stop stop-color="#767D86" offset="100%"></stop>
        </linearGradient>
        <rect id="path-16" x="14" y="60" width="253" height="430"></rect>
    </defs>
    <g id="Work-Single-(Featured)" stroke="none" stroke-width="1" fill="none" fill-rule="evenodd">
        <g id="Work-v1.0" transform="translate(-672.000000, -3592.000000)">
            <g id="iPhone-6" transform="translate(673.000000, 3594.000000)">
                <g id="Body" transform="translate(2.000000, 0.000000)">
                    <g id="Rectangle-10">
                        <use fill="black" fill-opacity="1" filter="url(#filter-3)" xlink:href="#path-2"></use>
                        <use fill="#24292F" fill-rule="evenodd" xlink:href="#path-2"></use>
                        <use fill="url(#linearGradient-1)" fill-rule="evenodd" xlink:href="#path-2"></use>
                        <use fill="black" fill-opacity="1" filter="url(#filter-4)" xlink:href="#path-2"></use>
                    </g>
                    <path d="M44.6581197,4.68333333 C22.5903316,4.68333333 4.7008547,22.5061313 4.7008547,44.4916667 L4.7008547,517.508333 C4.7008547,539.493869 22.5903316,557.316667 44.6581197,557.316667 L230.34188,557.316667 C252.409668,557.316667 270.299145,539.493869 270.299145,517.508333 L270.299145,44.4916667 C270.299145,22.5061313 252.409668,4.68333333 230.34188,4.68333333 L44.6581197,4.68333333 Z M44.6581197,0 L230.34188,0 C255.005879,-4.51381585e-15 275,19.9195977 275,44.4916667 L275,517.508333 C275,542.080402 255.005879,562 230.34188,562 L44.6581197,562 C19.9941212,562 3.13139827e-15,542.080402 0,517.508333 L0,44.4916667 C-3.13139827e-15,19.9195977 19.9941212,4.51381585e-15 44.6581197,0 Z" id="Rectangle-10" fill="url(#linearGradient-5)" fill-rule="nonzero"></path>
                    <rect id="Rectangle-13" fill="url(#linearGradient-6)" transform="translate(272.587719, 48.503566) scale(-1, 1) translate(-272.587719, -48.503566) " x="270.175439" y="42.4907275" width="4.8245614" height="12.0256776"></rect>
                    <rect id="Rectangle-13" fill="url(#linearGradient-7)" x="0" y="496.259629" width="4.8245614" height="12.0256776"></rect>
                    <rect id="Rectangle-13" fill="url(#linearGradient-7)" transform="translate(272.587719, 502.272468) scale(-1, 1) translate(-272.587719, -502.272468) " x="270.175439" y="496.259629" width="4.8245614" height="12.0256776"></rect>
                    <rect id="Rectangle-13" fill="url(#linearGradient-6)" x="0" y="42.4907275" width="4.8245614" height="12.0256776"></rect>
                </g>
                <g id="Home-button">
                    <use fill="#24292F" fill-rule="evenodd" xlink:href="#path-8"></use>
                    <use fill="black" fill-opacity="1" filter="url(#filter-9)" xlink:href="#path-8"></use>
                </g>
                <path d="M141.5,547 C129.073593,547 119,537.150264 119,525 C119,512.849736 129.073593,503 141.5,503 C153.926407,503 164,512.849736 164,525 C164,537.150264 153.926407,547 141.5,547 Z M141.5,544.684211 C152.618364,544.684211 161.631579,535.871289 161.631579,525 C161.631579,514.128711 152.618364,505.315789 141.5,505.315789 C130.381636,505.315789 121.368421,514.128711 121.368421,525 C121.368421,535.871289 130.381636,544.684211 141.5,544.684211 Z" id="Sketch" fill="url(#linearGradient-10)" fill-rule="nonzero"></path>
                <g id="Speaker">
                    <use fill="#000000" fill-rule="evenodd" xlink:href="#path-12"></use>
                    <rect stroke="url(#linearGradient-11)" stroke-width="1" x="115.5" y="33.5" width="47" height="6" rx="3"></rect>
                </g>
                <g id="Camera">
                    <use fill="url(#linearGradient-13)" fill-rule="evenodd" xlink:href="#path-14"></use>
                    <rect stroke="url(#linearGradient-11)" stroke-width="1" x="96.5" y="31.5" width="8" height="8" rx="4"></rect>
                </g>
                <g id="Buttons" transform="translate(0.000000, 64.000000)">
                    <path d="M1,0 L2.40517241,0 L2.40517241,28.0838323 L1,28.0838323 C0.44771525,28.0838323 -6.16644369e-16,27.6361171 -1.66533454e-15,27.0838323 L-2.22044605e-16,1 C-2.8967998e-16,0.44771525 0.44771525,1.01453063e-16 1,0 Z" id="Rectangle-13" fill="url(#linearGradient-15)"></path>
                    <path d="M1,51.3532934 L2.40517241,51.3532934 L2.40517241,86.6586826 L1,86.6586826 C0.44771525,86.6586826 -1.3473623e-15,86.2109674 -2.88657986e-15,85.6586826 L-2.22044605e-16,52.3532934 C-2.8967998e-16,51.8010087 0.44771525,51.3532934 1,51.3532934 Z" id="Rectangle-13" fill="url(#linearGradient-15)"></path>
                    <path d="M277.594828,51.3532934 L279,51.3532934 L279,86.6586826 L277.594828,86.6586826 C277.042543,86.6586826 276.594828,86.2109674 276.594828,85.6586826 L276.594828,52.3532934 C276.594828,51.8010087 277.042543,51.3532934 277.594828,51.3532934 Z" id="Rectangle-13" fill="url(#linearGradient-15)" transform="translate(277.797414, 69.005988) scale(-1, 1) translate(-277.797414, -69.005988) "></path>
                    <path d="M1,98.6946108 L2.40517241,98.6946108 L2.40517241,134 L1,134 C0.44771525,134 -1.3473623e-15,133.552285 -2.88657986e-15,133 L-2.22044605e-16,99.6946108 C-2.8967998e-16,99.142326 0.44771525,98.6946108 1,98.6946108 Z" id="Rectangle-13" fill="#767D86"></path>
                </g>
                <g id="Screen">
                    <use fill="#000000" fill-rule="evenodd" xlink:href="#path-16"></use>
                    <rect stroke="#2C2C2C" stroke-width="1" x="14.5" y="60.5" width="252" height="429"></rect>
                </g>
            </g>
        </g>
    </g>
</svg>